#N canvas 0 54 1366 714 10;
#X msg 1244 152 \; pd dsp 1;
#X obj 1233 70 loadbang;
#X obj 1209 194 print Running;
#X obj 1232 108 delay 100;
#X obj 26 141 osc~ 440;
#X obj 86 139 osc~ 470;
#X obj 148 139 osc~ 370;
#X obj 223 134 osc~ 770;
#X obj 258 67 osc~ 770;
#X obj 62 69 osc~ 445;
#X obj 122 67 osc~ 40;
#X obj 184 67 osc~ 0.3;
#X obj 409 141 osc~ 470;
#X obj 471 141 osc~ 370;
#X obj 546 136 osc~ 770;
#X obj 384 95 *~ 0.01;
#X obj 443 99 *~ 0.01;
#X obj 346 174 *~ 0.01;
#X obj 405 178 *~ 0.01;
#X obj 476 172 *~ 0.01;
#X obj 514 101 *~ 0.01;
#X obj 576 96 *~ 0.01;
#X obj 543 174 *~ 0.01;
#X obj 385 71 osc~ 4450;
#X obj 349 143 osc~ 4400;
#X obj 445 69 osc~ 4567;
#X obj 507 69 osc~ 4;
#X obj 581 69 osc~ 4567;
#X obj 685 94 *~ 0.01;
#X obj 744 98 *~ 0.01;
#X obj 649 178 *~ 0.01;
#X obj 715 177 *~ 0.01;
#X obj 777 171 *~ 0.01;
#X obj 813 98 *~ 0.01;
#X obj 877 95 *~ 0.01;
#X obj 848 179 *~ 0.01;
#X obj 952 94 *~ 0.01;
#X obj 1011 98 *~ 0.01;
#X obj 918 178 *~ 0.01;
#X obj 976 184 *~ 0.01;
#X obj 1040 179 *~ 0.01;
#X obj 1080 98 *~ 0.01;
#X obj 1145 98 *~ 0.01;
#X obj 1114 179 *~ 0.01;
#X obj 686 70 osc~ 500;
#X obj 746 68 osc~ 501;
#X obj 812 67 osc~ 250;
#X obj 883 68 osc~ 251;
#X obj 954 71 osc~ 125;
#X obj 1013 68 osc~ 126;
#X obj 1075 68 osc~ 127;
#X obj 1149 68 osc~ 128;
#X obj 650 142 osc~ 1000;
#X obj 710 141 osc~ 1001;
#X obj 778 140 osc~ 1002;
#X obj 847 135 osc~ 2001;
#X obj 917 142 osc~ 2010;
#X obj 977 140 osc~ 4001;
#X obj 1039 140 osc~ 4004;
#X obj 1115 135 osc~ 4040;
#X obj 396 517 *~;
#X obj 469 457 *~ 0.5;
#X obj 462 482 +~ 0.5;
#X obj 394 568 dac~;
#X obj 472 432 osc~ 0.2;
#X obj 373 421 *~ 3;
#X obj 60 93 *~ 0.01;
#X obj 120 97 *~ 0.01;
#X obj 189 97 *~ 0.01;
#X obj 258 94 *~ 0.01;
#X obj 22 174 *~ 0.01;
#X obj 84 172 *~ 0.01;
#X obj 153 169 *~ 0.01;
#X obj 220 172 *~ 0.01;
#X connect 1 0 3 0;
#X connect 3 0 0 0;
#X connect 3 0 2 0;
#X connect 4 0 70 0;
#X connect 5 0 71 0;
#X connect 6 0 72 0;
#X connect 7 0 73 0;
#X connect 8 0 69 0;
#X connect 9 0 66 0;
#X connect 10 0 67 0;
#X connect 11 0 68 0;
#X connect 12 0 18 0;
#X connect 13 0 19 0;
#X connect 14 0 22 0;
#X connect 15 0 65 0;
#X connect 16 0 65 0;
#X connect 17 0 65 0;
#X connect 18 0 65 0;
#X connect 19 0 65 0;
#X connect 20 0 65 0;
#X connect 21 0 65 0;
#X connect 22 0 65 0;
#X connect 23 0 15 0;
#X connect 24 0 17 0;
#X connect 25 0 16 0;
#X connect 26 0 20 0;
#X connect 27 0 21 0;
#X connect 28 0 65 0;
#X connect 29 0 65 0;
#X connect 30 0 65 0;
#X connect 31 0 65 0;
#X connect 32 0 65 0;
#X connect 33 0 65 0;
#X connect 34 0 65 0;
#X connect 35 0 65 0;
#X connect 36 0 65 0;
#X connect 37 0 65 0;
#X connect 38 0 65 0;
#X connect 39 0 65 0;
#X connect 40 0 65 0;
#X connect 41 0 65 0;
#X connect 42 0 65 0;
#X connect 43 0 65 0;
#X connect 44 0 28 0;
#X connect 45 0 29 0;
#X connect 46 0 33 0;
#X connect 47 0 34 0;
#X connect 48 0 36 0;
#X connect 49 0 37 0;
#X connect 50 0 41 0;
#X connect 51 0 42 0;
#X connect 52 0 30 0;
#X connect 53 0 31 0;
#X connect 54 0 32 0;
#X connect 55 0 35 0;
#X connect 56 0 38 0;
#X connect 57 0 39 0;
#X connect 58 0 40 0;
#X connect 59 0 43 0;
#X connect 60 0 63 0;
#X connect 60 0 63 1;
#X connect 61 0 62 0;
#X connect 62 0 60 1;
#X connect 64 0 61 0;
#X connect 65 0 60 0;
#X connect 66 0 65 0;
#X connect 67 0 65 0;
#X connect 68 0 65 0;
#X connect 69 0 65 0;
#X connect 70 0 65 0;
#X connect 71 0 65 0;
#X connect 72 0 65 0;
#X connect 73 0 65 0;
