#N canvas 356 676 725 437 10;
#X obj 91 16 adc~, f 7;
#X obj 138 268 dac~;
#N canvas 354 94 730 557 noisegate 0;
#X obj 96 93 env~;
#X obj 60 263 *~;
#X obj 96 241 line~;
#X obj 60 55 inlet~;
#X obj 60 284 outlet~;
#X obj 115 54 inlet;
#X obj 218 102 inlet;
#X obj 260 101 inlet;
#X obj 96 132 change;
#X msg 96 206 1 \$1;
#X msg 139 205 0 \$1;
#X obj 96 153 sel 1 0;
#X text 195 236 1 - threshhold;
#X text 195 251 2 - attack time;
#X text 195 266 3 - release time;
#X text 195 216 arguments:;
#X obj 96 112 >;
#X obj 96 180 f;
#X obj 139 180 f;
#X connect 0 0 16 0;
#X connect 1 0 4 0;
#X connect 2 0 1 1;
#X connect 3 0 0 0;
#X connect 3 0 1 0;
#X connect 5 0 16 1;
#X connect 6 0 17 1;
#X connect 7 0 18 1;
#X connect 8 0 11 0;
#X connect 9 0 2 0;
#X connect 10 0 2 0;
#X connect 11 0 17 0;
#X connect 11 1 18 0;
#X connect 16 0 8 0;
#X connect 17 0 9 0;
#X connect 18 0 10 0;
#X restore 92 158 pd noisegate;
#X obj 355 36 loadbang;
#X msg 278 72 2;
#X msg 319 76 10;
#X obj 343 144 print;
#N canvas 550 186 730 557 noisegate 0;
#X obj 96 93 env~;
#X obj 60 263 *~;
#X obj 96 241 line~;
#X obj 60 55 inlet~;
#X obj 60 284 outlet~;
#X obj 115 54 inlet;
#X obj 218 102 inlet;
#X obj 260 101 inlet;
#X obj 96 132 change;
#X msg 96 206 1 \$1;
#X msg 139 205 0 \$1;
#X obj 96 153 sel 1 0;
#X text 195 236 1 - threshhold;
#X text 195 251 2 - attack time;
#X text 195 266 3 - release time;
#X text 195 216 arguments:;
#X obj 96 112 >;
#X obj 96 180 f;
#X obj 139 180 f;
#X connect 0 0 16 0;
#X connect 1 0 4 0;
#X connect 2 0 1 1;
#X connect 3 0 0 0;
#X connect 3 0 1 0;
#X connect 5 0 16 1;
#X connect 6 0 17 1;
#X connect 7 0 18 1;
#X connect 8 0 11 0;
#X connect 9 0 2 0;
#X connect 10 0 2 0;
#X connect 11 0 17 0;
#X connect 11 1 18 0;
#X connect 16 0 8 0;
#X connect 17 0 9 0;
#X connect 18 0 10 0;
#X restore 182 157 pd noisegate;
#X msg 221 74 20;
#X obj 158 41 env~;
#X obj 176 65 print;
#X connect 0 0 2 0;
#X connect 0 1 7 0;
#X connect 0 1 9 0;
#X connect 2 0 1 0;
#X connect 3 0 5 0;
#X connect 3 0 4 0;
#X connect 3 0 8 0;
#X connect 4 0 2 2;
#X connect 4 0 6 0;
#X connect 4 0 7 2;
#X connect 5 0 2 3;
#X connect 5 0 6 0;
#X connect 5 0 7 3;
#X connect 7 0 1 1;
#X connect 8 0 2 1;
#X connect 8 0 6 0;
#X connect 8 0 7 1;
#X connect 9 0 10 0;
