#N canvas 182 160 1601 854 10;
#X obj 158 325 mtof;
#X obj 158 274 stripnote;
#X obj 309 330 select;
#X obj 300 224 float;
#X obj 309 192 t b f;
#X obj 309 298 float;
#X text 362 178 f - store pitch below;
#X text 354 226 velocity stored here;
#X text 273 270 off;
#X text 361 297 recall pitch;
#X obj 157 171 unpack;
#X obj 239 381 line~;
#X msg 297 101 55 64;
#X msg 297 127 55 0;
#X msg 240 102 48 64;
#X msg 240 128 48 0;
#X text 363 198 b - bang to recall velocity;
#X obj 300 253 sel 0;
#X text 322 274 on;
#X obj 160 499 hip~ 5;
#X obj 159 453 *~;
#X obj 158 352 phasor~;
#X obj 158 376 -~ 0.5;
#X obj 159 404 cos~;
#X obj 247 428 *~;
#X obj 159 428 +~ 1;
#X obj 247 476 cos~;
#X msg 240 79 48 128;
#X text 163 302 pitch;
#X text 164 254 messages;
#X text 355 252 test for note on or off;
#X text 372 331 test against latest;
#X text 415 346 note-on pitch;
#X text 163 218 filter;
#X text 164 236 note-on;
#X obj 160 475 *~;
#X obj 238 325 / 127;
#X text 293 382 envelope generator now controls amplitude;
#X obj 247 452 *~ 2;
#X obj 268 405 +~ 0.5;
#X text 293 498 The +~ 0.5 and *~ 2 are fudge factors.;
#X text 293 459 This replaces the tabread4~;
#X text 291 479 in the previous patch.;
#X text 356 101 These buttons simulate MIDI input.;
#X obj 231 352 pack 0 100;
#X obj 314 359 pack 0 1000;
#X obj 581 224 * 1000;
#X obj 652 220 * 1000;
#X obj 158 111 inlet;
#X obj 158 561 outlet~;
#X obj 581 187 inlet;
#X obj 654 185 inlet;
#X connect 0 0 21 0;
#X connect 1 0 2 1;
#X connect 1 0 0 0;
#X connect 2 0 45 0;
#X connect 3 0 17 0;
#X connect 4 0 3 0;
#X connect 4 1 5 1;
#X connect 5 0 2 0;
#X connect 10 0 1 0;
#X connect 10 0 4 0;
#X connect 10 1 1 1;
#X connect 10 1 3 1;
#X connect 11 0 35 1;
#X connect 11 0 39 0;
#X connect 12 0 10 0;
#X connect 13 0 10 0;
#X connect 14 0 10 0;
#X connect 15 0 10 0;
#X connect 17 0 5 0;
#X connect 17 1 36 0;
#X connect 19 0 49 0;
#X connect 20 0 35 0;
#X connect 21 0 22 0;
#X connect 22 0 24 0;
#X connect 22 0 23 0;
#X connect 23 0 25 0;
#X connect 24 0 38 0;
#X connect 25 0 20 0;
#X connect 26 0 20 1;
#X connect 27 0 10 0;
#X connect 35 0 19 0;
#X connect 36 0 44 0;
#X connect 38 0 26 0;
#X connect 39 0 24 1;
#X connect 44 0 11 0;
#X connect 45 0 11 0;
#X connect 46 0 44 1;
#X connect 47 0 45 1;
#X connect 48 0 10 0;
#X connect 50 0 46 0;
#X connect 51 0 47 0;
