#N canvas 565 89 1071 888 10;
#X obj 145 370 example-synth;
#X obj 278 369 example-synth;
#X obj 399 371 example-synth;
#X obj 516 368 example-synth;
#X obj 261 254 r knob1;
#X obj 339 252 r knob2;
#X obj 846 485 pack f f f;
#X obj 844 535 route 1 2 3 4;
#X msg 764 375 stop;
#X obj 845 441 poly 4 1;
#X obj 803 302 r notes;
#X text 875 45 comment;
#X text 695 581 comment;
#X obj 848 388 + 0;
#X obj 370 513 clip~ -0.9 0.9;
#X obj 566 635 lop~ 1;
#X obj 576 608 * 1000;
#X obj 326 595 *~ 0.66;
#X obj 359 561 r knob4;
#X obj 579 577 r knob3;
#X obj 424 567 delwrite~ synth1_del 2000;
#X obj 550 668 vd~ synth1_del 2000;
#X obj 158 561 *~ 0.08;
#X obj 807 347 unpack 0 0;
#X obj 468 784 throw~ outL;
#X obj 568 779 throw~ outR;
#X obj 497 720 *~ 1;
#X connect 0 0 22 0;
#X connect 1 0 22 0;
#X connect 2 0 22 0;
#X connect 3 0 22 0;
#X connect 4 0 0 1;
#X connect 4 0 1 1;
#X connect 4 0 2 1;
#X connect 4 0 3 1;
#X connect 5 0 0 2;
#X connect 5 0 1 2;
#X connect 5 0 2 2;
#X connect 5 0 3 2;
#X connect 6 0 7 0;
#X connect 7 0 0 0;
#X connect 7 1 1 0;
#X connect 7 2 2 0;
#X connect 7 3 3 0;
#X connect 8 0 9 0;
#X connect 9 0 6 0;
#X connect 9 1 6 1;
#X connect 9 2 6 2;
#X connect 10 0 23 0;
#X connect 13 0 9 0;
#X connect 14 0 20 0;
#X connect 14 0 26 0;
#X connect 15 0 21 0;
#X connect 16 0 15 0;
#X connect 17 0 14 0;
#X connect 18 0 17 1;
#X connect 19 0 16 0;
#X connect 21 0 17 0;
#X connect 21 0 26 0;
#X connect 22 0 14 0;
#X connect 23 0 13 0;
#X connect 23 1 9 1;
#X connect 26 0 24 0;
#X connect 26 0 25 0;
