#N canvas 0 54 1366 714 10;
#X text 241 47 <-- UDP \, port 3001;
#X obj 980 248 loadbang;
#X obj 456 631 dac~;
#X obj 438 279 sig~ 400;
#X obj 520 274 sig~ 400;
#X obj 393 465 osc~;
#X obj 452 439 osc~;
#X obj 621 438 r knob1;
#X obj 593 173 r knob2;
#X obj 507 173 r knob3;
#X obj 430 176 r knob4;
#X obj 512 202 * 2000;
#X obj 588 204 * 2000;
#X obj 431 207 * 2000;
#X obj 432 555 *~;
#X obj 582 476 sig~ 1;
#X obj 439 317 lop~ 5;
#X obj 609 295 sig~;
#X obj 515 318 lop~ 5;
#X obj 610 333 lop~ 5;
#X obj 542 505 lop~ 5;
#X obj 570 545 r aux;
#X obj 461 591 *~;
#X obj 526 563 tgl 15 0 empty empty empty 17 7 0 10 -262144 -1 -1 1
1;
#X obj 533 393 osc~;
#X obj 410 506 *~ 0.3;
#X obj 470 506 *~ 0.3;
#X obj 530 477 *~ 0.3;
#X obj 599 264 + 400;
#X obj 589 237 mod 200;
#X obj 510 236 mod 400;
#X obj 427 246 mod 800;
#X connect 1 0 23 0;
#X connect 3 0 16 0;
#X connect 4 0 18 0;
#X connect 5 0 25 0;
#X connect 6 0 26 0;
#X connect 7 0 15 0;
#X connect 8 0 12 0;
#X connect 9 0 11 0;
#X connect 10 0 13 0;
#X connect 11 0 30 0;
#X connect 12 0 29 0;
#X connect 13 0 31 0;
#X connect 14 0 22 0;
#X connect 15 0 20 0;
#X connect 16 0 5 0;
#X connect 17 0 19 0;
#X connect 18 0 6 0;
#X connect 19 0 24 0;
#X connect 20 0 14 1;
#X connect 21 0 23 0;
#X connect 22 0 2 1;
#X connect 22 0 2 0;
#X connect 23 0 22 1;
#X connect 24 0 27 0;
#X connect 25 0 14 0;
#X connect 26 0 14 0;
#X connect 27 0 14 0;
#X connect 28 0 17 0;
#X connect 29 0 28 0;
#X connect 30 0 4 0;
#X connect 31 0 3 0;
