#N canvas 9 22 1436 718 10;
#X obj 326 444 s knob1;
#X obj 250 449 s knob2;
#X obj 170 450 s knob3;
#X obj 72 446 s knob4;
#X obj 137 348 / 1024;
#X obj 197 348 / 1024;
#X obj 248 348 / 1024;
#X obj 299 345 / 1024;
#X msg 143 92 \; pd dsp 1;
#X obj 199 4 loadbang;
#X obj 143 50 delay 100;
#X obj 287 50 delay 200;
#X obj 192 172 vsl 15 128 0 1024 0 0 empty empty empty 0 -9 0 10 -262144
-1 -1 4961 1;
#X obj 219 170 vsl 15 128 0 1024 0 0 empty empty empty 0 -9 0 10 -262144
-1 -1 4961 1;
#X obj 248 174 vsl 15 128 0 1024 0 0 empty empty empty 0 -9 0 10 -262144
-1 -1 4961 1;
#X obj 281 173 vsl 15 128 0 1024 0 0 empty empty empty 0 -9 0 10 -262144
-1 -1 4961 1;
#X msg 243 120 400;
#X obj 304 116 s readybang;
#X obj 383 48 bng 15 250 50 0 empty empty empty 17 7 0 10 -262144 -1
-1;
#X text 413 49 RESET PATCH;
#X obj 565 187 oscparse;
#X obj 564 155 netreceive -u -b;
#X msg 577 128 listen 0;
#X text 666 125 stop listening;
#X text 562 76 packets from network;
#X text 667 98 slisten on port 5000;
#X text 704 153 UDP packets \, binary output, f 13;
#X obj 564 47 r readybang;
#X msg 565 100 listen 12344;
#X obj 566 223 list split 1;
#X obj 600 254 list trim;
#X obj 754 335 s knob1;
#X obj 678 340 s knob2;
#X obj 598 341 s knob3;
#X obj 488 334 s knob4;
#X obj 196 547 sel 1;
#X msg 195 577 60 100;
#X msg 202 599 60 0;
#X obj 196 692 s notes;
#X obj 422 405 print;
#X obj 486 299 route fader4;
#X obj 577 301 route fader3;
#X obj 672 302 route fader2;
#X obj 768 304 route fader1;
#X obj 168 492 route push1 push24 push3 push4 push5 push6 push7 push8
push9 push10 push11 push12 push13 push14 push15 push16 push17 push18
push19 push20 push21 push22 push23 push26 push27, f 201;
#X obj 35 542 sel 1;
#X msg 10 577 60 100;
#X msg 62 577 60 0;
#X obj 26 631 s notes;
#X obj 253 546 sel 1;
#X obj 303 548 sel 1;
#X obj 353 549 sel 1;
#X obj 404 544 sel 1;
#X obj 454 548 sel 1;
#X obj 504 548 sel 1;
#X obj 556 547 sel 1;
#X obj 606 547 sel 1;
#X obj 659 545 sel 1;
#X obj 710 542 sel 1;
#X obj 757 544 sel 1;
#X obj 805 545 sel 1;
#X obj 853 547 sel 1;
#X obj 900 545 sel 1;
#X obj 947 544 sel 1;
#X obj 995 541 sel 1;
#X obj 1045 542 sel 1;
#X obj 1094 542 sel 1;
#X obj 1145 540 sel 1;
#X obj 1201 541 sel 1;
#X obj 1254 538 sel 1;
#X obj 1310 541 sel 1;
#X obj 1366 542 sel 1;
#X msg 252 576 61 100;
#X msg 259 598 61 0;
#X msg 302 578 62 100;
#X msg 309 600 62 0;
#X msg 352 579 63 100;
#X msg 359 601 63 0;
#X msg 403 574 64 100;
#X msg 410 596 64 0;
#X msg 453 578 65 100;
#X msg 460 600 65 0;
#X msg 503 578 66 100;
#X msg 510 600 66 0;
#X msg 556 577 67 100;
#X msg 563 599 67 0;
#X msg 606 576 68 100;
#X msg 612 599 68 0;
#X msg 658 575 69 100;
#X msg 665 597 69 0;
#X msg 709 571 70 100;
#X msg 716 594 670 0;
#X msg 756 574 71 100;
#X msg 763 596 71 0;
#X msg 804 575 72 100;
#X msg 811 597 72 0;
#X msg 852 577 73 100;
#X msg 859 599 73 0;
#X msg 899 575 74 100;
#X msg 906 597 74 0;
#X msg 946 574 75 100;
#X msg 953 596 75 0;
#X msg 994 571 76 100;
#X msg 1001 593 76 0;
#X msg 1044 572 77 100;
#X msg 1051 594 77 0;
#X msg 1093 572 78 100;
#X msg 1100 594 78 0;
#X msg 1144 570 79 100;
#X msg 1152 595 79 0;
#X msg 1199 571 80 100;
#X msg 1207 593 80 0;
#X msg 1253 568 81 100;
#X msg 1260 590 81 0;
#X msg 1309 571 82 100;
#X msg 1316 593 82 0;
#X msg 1365 572 83 100;
#X msg 1372 594 83 0;
#X connect 4 0 3 0;
#X connect 5 0 2 0;
#X connect 6 0 1 0;
#X connect 7 0 0 0;
#X connect 9 0 10 0;
#X connect 9 0 11 0;
#X connect 10 0 8 0;
#X connect 11 0 16 0;
#X connect 11 0 17 0;
#X connect 12 0 4 0;
#X connect 13 0 5 0;
#X connect 14 0 6 0;
#X connect 15 0 7 0;
#X connect 16 0 12 0;
#X connect 16 0 13 0;
#X connect 16 0 14 0;
#X connect 16 0 15 0;
#X connect 18 0 17 0;
#X connect 18 0 16 0;
#X connect 20 0 29 0;
#X connect 21 0 20 0;
#X connect 22 0 21 0;
#X connect 27 0 28 0;
#X connect 28 0 21 0;
#X connect 29 1 30 0;
#X connect 30 0 39 0;
#X connect 30 0 40 0;
#X connect 30 0 41 0;
#X connect 30 0 42 0;
#X connect 30 0 43 0;
#X connect 30 0 44 0;
#X connect 35 0 36 0;
#X connect 35 1 37 0;
#X connect 36 0 38 0;
#X connect 37 0 38 0;
#X connect 40 0 34 0;
#X connect 41 0 33 0;
#X connect 42 0 32 0;
#X connect 43 0 31 0;
#X connect 44 1 35 0;
#X connect 44 2 49 0;
#X connect 44 3 50 0;
#X connect 44 4 51 0;
#X connect 44 5 52 0;
#X connect 44 6 53 0;
#X connect 44 7 54 0;
#X connect 44 8 55 0;
#X connect 44 9 56 0;
#X connect 44 10 57 0;
#X connect 44 11 58 0;
#X connect 44 12 59 0;
#X connect 44 13 60 0;
#X connect 44 14 61 0;
#X connect 44 15 62 0;
#X connect 44 16 63 0;
#X connect 44 17 64 0;
#X connect 44 18 65 0;
#X connect 44 19 66 0;
#X connect 44 20 67 0;
#X connect 44 21 68 0;
#X connect 44 22 69 0;
#X connect 44 23 70 0;
#X connect 44 24 71 0;
#X connect 45 0 46 0;
#X connect 45 1 47 0;
#X connect 46 0 48 0;
#X connect 47 0 48 0;
#X connect 49 0 72 0;
#X connect 49 1 73 0;
#X connect 50 0 74 0;
#X connect 50 1 75 0;
#X connect 51 0 76 0;
#X connect 51 1 77 0;
#X connect 52 0 78 0;
#X connect 52 1 79 0;
#X connect 53 0 80 0;
#X connect 53 1 81 0;
#X connect 54 0 82 0;
#X connect 54 1 83 0;
#X connect 55 0 84 0;
#X connect 55 1 85 0;
#X connect 56 0 86 0;
#X connect 56 1 87 0;
#X connect 57 0 88 0;
#X connect 57 1 89 0;
#X connect 58 0 90 0;
#X connect 58 1 91 0;
#X connect 59 0 92 0;
#X connect 59 1 93 0;
#X connect 60 0 94 0;
#X connect 60 1 95 0;
#X connect 61 0 96 0;
#X connect 61 1 97 0;
#X connect 62 0 98 0;
#X connect 62 1 99 0;
#X connect 63 0 100 0;
#X connect 63 1 101 0;
#X connect 64 0 102 0;
#X connect 64 1 103 0;
#X connect 65 0 104 0;
#X connect 65 1 105 0;
#X connect 66 0 106 0;
#X connect 66 1 107 0;
#X connect 67 0 108 0;
#X connect 67 1 109 0;
#X connect 68 0 110 0;
#X connect 68 1 111 0;
#X connect 69 0 112 0;
#X connect 69 1 113 0;
#X connect 70 0 114 0;
#X connect 70 1 115 0;
#X connect 71 0 116 0;
#X connect 71 1 117 0;
#X connect 72 0 38 0;
#X connect 73 0 38 0;
#X connect 74 0 38 0;
#X connect 75 0 38 0;
#X connect 76 0 38 0;
#X connect 77 0 38 0;
#X connect 78 0 38 0;
#X connect 79 0 38 0;
#X connect 80 0 38 0;
#X connect 81 0 38 0;
#X connect 82 0 38 0;
#X connect 83 0 38 0;
#X connect 84 0 38 0;
#X connect 85 0 38 0;
#X connect 86 0 38 0;
#X connect 87 0 38 0;
#X connect 88 0 38 0;
#X connect 89 0 38 0;
#X connect 90 0 38 0;
#X connect 91 0 38 0;
#X connect 92 0 38 0;
#X connect 93 0 38 0;
#X connect 94 0 38 0;
#X connect 95 0 38 0;
#X connect 96 0 38 0;
#X connect 97 0 38 0;
#X connect 98 0 38 0;
#X connect 99 0 38 0;
#X connect 100 0 38 0;
#X connect 101 0 38 0;
#X connect 102 0 38 0;
#X connect 103 0 38 0;
#X connect 104 0 38 0;
#X connect 105 0 38 0;
#X connect 106 0 38 0;
#X connect 107 0 38 0;
#X connect 108 0 38 0;
#X connect 109 0 38 0;
#X connect 110 0 38 0;
#X connect 111 0 38 0;
#X connect 112 0 38 0;
#X connect 113 0 38 0;
#X connect 114 0 38 0;
#X connect 115 0 38 0;
#X connect 116 0 38 0;
#X connect 117 0 38 0;
