#N canvas 186 77 1298 705 10;
#X obj 309 491 s knob1;
#X obj 233 496 s knob2;
#X obj 153 497 s knob3;
#X obj 55 493 s knob4;
#X obj 120 395 / 1024;
#X obj 180 395 / 1024;
#X obj 231 395 / 1024;
#X obj 282 392 / 1024;
#X msg 126 139 \; pd dsp 1;
#X obj 182 51 loadbang;
#X obj 126 97 delay 100;
#X obj 270 97 delay 200;
#X obj 175 219 vsl 15 128 0 1024 0 0 empty empty empty 0 -9 0 10 -262144
-1 -1 4961 1;
#X obj 202 217 vsl 15 128 0 1024 0 0 empty empty empty 0 -9 0 10 -262144
-1 -1 4961 1;
#X obj 231 221 vsl 15 128 0 1024 0 0 empty empty empty 0 -9 0 10 -262144
-1 -1 4961 1;
#X obj 264 220 vsl 15 128 0 1024 0 0 empty empty empty 0 -9 0 10 -262144
-1 -1 4961 1;
#X msg 226 167 400;
#X obj 287 163 s readybang;
#X obj 366 95 bng 15 250 50 0 empty empty empty 17 7 0 10 -262144 -1
-1;
#X text 396 96 RESET PATCH;
#X obj 638 390 s notes;
#X obj 598 176 netreceive -u 5005;
#X obj 385 298 route s1;
#X obj 632 246 route key;
#X obj 385 324 s knob1;
#X obj 445 324 s knob2;
#X obj 506 323 s knob3;
#X obj 568 322 s knob4;
#X obj 445 298 route s2;
#X obj 506 297 route s3;
#X obj 568 296 route s4;
#X obj 637 299 unpack;
#X obj 638 356 pack f f;
#X obj 480 362 r notes;
#X obj 480 392 print;
#X obj 638 328 + 47;
#X obj 678 329 * 100;
#X obj 737 248 route aux;
#X obj 737 274 s aux;
#X connect 4 0 3 0;
#X connect 5 0 2 0;
#X connect 6 0 1 0;
#X connect 7 0 0 0;
#X connect 9 0 10 0;
#X connect 9 0 11 0;
#X connect 10 0 8 0;
#X connect 11 0 16 0;
#X connect 11 0 17 0;
#X connect 12 0 4 0;
#X connect 13 0 5 0;
#X connect 14 0 6 0;
#X connect 15 0 7 0;
#X connect 16 0 12 0;
#X connect 16 0 13 0;
#X connect 16 0 14 0;
#X connect 16 0 15 0;
#X connect 18 0 17 0;
#X connect 18 0 16 0;
#X connect 21 0 22 0;
#X connect 21 0 23 0;
#X connect 21 0 28 0;
#X connect 21 0 29 0;
#X connect 21 0 30 0;
#X connect 21 0 37 0;
#X connect 22 0 24 0;
#X connect 23 0 31 0;
#X connect 28 0 25 0;
#X connect 29 0 26 0;
#X connect 30 0 27 0;
#X connect 31 0 35 0;
#X connect 31 1 36 0;
#X connect 32 0 20 0;
#X connect 33 0 34 0;
#X connect 35 0 32 0;
#X connect 36 0 32 1;
#X connect 37 0 38 0;
