#N canvas 365 63 1319 692 10;
#X obj 102 781 readsf~;
#X msg 38 740 1;
#X msg 139 753 0;
#X obj 93 835 dac~;
#X msg 100 500 start;
#X msg 57 501 stop;
#X obj 111 578 writesf~ 1;
#X obj 175 532 adc~;
#X msg 105 707 open /tmp/foo1.wav;
#X obj 115 47 bng 32 250 50 0 start empty empty 17 7 0 10 -262144 -1
-1;
#X obj 115 91 bng 32 250 50 0 stop empty empty 17 7 0 10 -262144 -1
-1;
#X text 155 102 stop;
#X obj 302 55 vradio 15 1 0 5 empty empty empty 0 -8 0 10 -262144 -1
-1 5;
#X text 300 29 record enable;
#X text 323 53 1;
#X text 323 114 none;
#X text 323 70 2;
#X text 323 86 3;
#X text 323 100 4;
#X text 155 56 start;
#X obj 273 162 f;
#X obj 219 215 == 0;
#X obj 254 215 == 1;
#X obj 289 215 == 2;
#X obj 326 215 == 3;
#X obj 208 265 sel 0 1;
#X obj 269 263 sel 0 1;
#X obj 330 267 sel 0 1;
#X obj 399 268 sel 0 1;
#X obj 83 617 r t1play;
#X obj 82 646 bng 15 250 50 0 empty empty empty 17 7 0 10 -262144 -1
-1;
#X obj 38 710 delay 500;
#X obj 148 645 r stop;
#X obj 140 677 bng 15 250 50 0 empty empty empty 17 7 0 10 -262144
-1 -1;
#X obj 308 782 readsf~;
#X msg 244 741 1;
#X msg 345 754 0;
#X obj 299 836 dac~;
#X obj 288 647 bng 15 250 50 0 empty empty empty 17 7 0 10 -262144
-1 -1;
#X obj 244 711 delay 500;
#X obj 354 646 r stop;
#X obj 346 678 bng 15 250 50 0 empty empty empty 17 7 0 10 -262144
-1 -1;
#X obj 506 782 readsf~;
#X msg 442 741 1;
#X msg 543 754 0;
#X obj 497 836 dac~;
#X obj 486 647 bng 15 250 50 0 empty empty empty 17 7 0 10 -262144
-1 -1;
#X obj 442 711 delay 500;
#X obj 552 646 r stop;
#X obj 544 678 bng 15 250 50 0 empty empty empty 17 7 0 10 -262144
-1 -1;
#X obj 712 783 readsf~;
#X msg 648 742 1;
#X msg 749 755 0;
#X obj 703 837 dac~;
#X obj 692 648 bng 15 250 50 0 empty empty empty 17 7 0 10 -262144
-1 -1;
#X obj 648 712 delay 500;
#X obj 758 647 r stop;
#X obj 750 679 bng 15 250 50 0 empty empty empty 17 7 0 10 -262144
-1 -1;
#X obj 289 618 r t2play;
#X obj 487 618 r t3play;
#X obj 693 619 r t4play;
#X obj 207 319 s t1play;
#X msg 311 708 open /tmp/foo2.wav;
#X msg 509 708 open /tmp/foo3.wav;
#X msg 715 709 open /tmp/foo4.wav;
#X obj 103 453 delay 500;
#X obj 52 444 r stop;
#X obj 53 474 bng 15 250 50 0 empty empty empty 17 7 0 10 -262144 -1
-1;
#X obj 98 400 bng 15 250 50 0 empty empty empty 17 7 0 10 -262144 -1
-1;
#X msg 138 487 open /tmp/foo1.wav;
#X obj 268 314 s t2play;
#X obj 330 316 s t3play;
#X obj 401 320 s t4play;
#X obj 413 298 s t4rec;
#X obj 348 294 s t3rec;
#X obj 280 292 s t2rec;
#X obj 220 298 s t1rec;
#X obj 99 374 r t1rec;
#X msg 312 489 start;
#X msg 269 490 stop;
#X obj 323 567 writesf~ 1;
#X obj 387 521 adc~;
#X obj 315 442 delay 500;
#X obj 264 433 r stop;
#X obj 265 463 bng 15 250 50 0 empty empty empty 17 7 0 10 -262144
-1 -1;
#X obj 310 389 bng 15 250 50 0 empty empty empty 17 7 0 10 -262144
-1 -1;
#X msg 524 491 start;
#X msg 481 492 stop;
#X obj 535 569 writesf~ 1;
#X obj 599 523 adc~;
#X obj 527 444 delay 500;
#X obj 476 435 r stop;
#X obj 477 465 bng 15 250 50 0 empty empty empty 17 7 0 10 -262144
-1 -1;
#X obj 522 391 bng 15 250 50 0 empty empty empty 17 7 0 10 -262144
-1 -1;
#X msg 738 477 start;
#X msg 695 478 stop;
#X obj 749 555 writesf~ 1;
#X obj 813 509 adc~;
#X obj 741 430 delay 500;
#X obj 690 421 r stop;
#X obj 691 451 bng 15 250 50 0 empty empty empty 17 7 0 10 -262144
-1 -1;
#X obj 736 377 bng 15 250 50 0 empty empty empty 17 7 0 10 -262144
-1 -1;
#X msg 350 476 open /tmp/foo2.wav;
#X msg 562 478 open /tmp/foo3.wav;
#X msg 776 464 open /tmp/foo4.wav;
#X obj 311 363 r t2rec;
#X obj 523 365 r t3rec;
#X obj 737 351 r t4rec;
#X obj 241 129 r start;
#X obj 149 195 print;
#X connect 0 0 3 1;
#X connect 0 0 3 0;
#X connect 1 0 0 0;
#X connect 2 0 0 0;
#X connect 4 0 6 0;
#X connect 5 0 6 0;
#X connect 7 0 6 0;
#X connect 7 1 6 0;
#X connect 8 0 0 0;
#X connect 12 0 20 1;
#X connect 20 0 21 0;
#X connect 20 0 22 0;
#X connect 20 0 23 0;
#X connect 20 0 24 0;
#X connect 20 0 109 0;
#X connect 21 0 25 0;
#X connect 22 0 26 0;
#X connect 23 0 27 0;
#X connect 24 0 28 0;
#X connect 25 0 61 0;
#X connect 25 1 76 0;
#X connect 26 0 70 0;
#X connect 26 1 75 0;
#X connect 27 0 71 0;
#X connect 27 1 74 0;
#X connect 28 0 72 0;
#X connect 28 1 73 0;
#X connect 29 0 30 0;
#X connect 30 0 8 0;
#X connect 30 0 31 0;
#X connect 31 0 1 0;
#X connect 32 0 33 0;
#X connect 33 0 2 0;
#X connect 34 0 37 1;
#X connect 34 0 37 0;
#X connect 35 0 34 0;
#X connect 36 0 34 0;
#X connect 38 0 62 0;
#X connect 38 0 39 0;
#X connect 39 0 35 0;
#X connect 40 0 41 0;
#X connect 41 0 36 0;
#X connect 42 0 45 1;
#X connect 42 0 45 0;
#X connect 43 0 42 0;
#X connect 44 0 42 0;
#X connect 46 0 63 0;
#X connect 46 0 47 0;
#X connect 47 0 43 0;
#X connect 48 0 49 0;
#X connect 49 0 44 0;
#X connect 50 0 53 1;
#X connect 50 0 53 0;
#X connect 51 0 50 0;
#X connect 52 0 50 0;
#X connect 54 0 64 0;
#X connect 54 0 55 0;
#X connect 55 0 51 0;
#X connect 56 0 57 0;
#X connect 57 0 52 0;
#X connect 58 0 38 0;
#X connect 59 0 46 0;
#X connect 60 0 54 0;
#X connect 62 0 34 0;
#X connect 63 0 42 0;
#X connect 64 0 50 0;
#X connect 65 0 4 0;
#X connect 66 0 67 0;
#X connect 67 0 5 0;
#X connect 68 0 65 0;
#X connect 68 0 69 0;
#X connect 69 0 6 0;
#X connect 77 0 68 0;
#X connect 78 0 80 0;
#X connect 79 0 80 0;
#X connect 81 0 80 0;
#X connect 81 1 80 0;
#X connect 82 0 78 0;
#X connect 83 0 84 0;
#X connect 84 0 79 0;
#X connect 85 0 82 0;
#X connect 85 0 102 0;
#X connect 86 0 88 0;
#X connect 87 0 88 0;
#X connect 89 0 88 0;
#X connect 89 1 88 0;
#X connect 90 0 86 0;
#X connect 91 0 92 0;
#X connect 92 0 87 0;
#X connect 93 0 90 0;
#X connect 93 0 103 0;
#X connect 94 0 96 0;
#X connect 95 0 96 0;
#X connect 97 0 96 0;
#X connect 97 1 96 0;
#X connect 98 0 94 0;
#X connect 99 0 100 0;
#X connect 100 0 95 0;
#X connect 101 0 98 0;
#X connect 101 0 104 0;
#X connect 102 0 80 0;
#X connect 103 0 88 0;
#X connect 104 0 96 0;
#X connect 105 0 85 0;
#X connect 106 0 93 0;
#X connect 107 0 101 0;
#X connect 108 0 20 0;
