#N canvas 212 170 1395 743 10;
#X obj 193 24 netreceive 4567 1;
#X obj 81 114 route knobs;
#X obj 77 171 - 1023;
#X obj 77 195 abs;
#X obj 77 171 - 1023;
#X obj 77 195 abs;
#X obj 488 177 s notes;
#X msg 669 120 \; pd dsp 1;
#X obj 651 46 loadbang;
#X obj 566 128 print Running;
#X obj 651 80 delay 100;
#X obj 739 92 delay 200;
#X obj 743 129 s readybang;
#X obj 442 27 notein 1;
#X obj 439 54 t b f, f 7;
#X obj 439 86 pack 0 0 0;
#X obj 487 150 route key;
#X obj 78 144 unpack 0 0 0 0 0, f 36;
#X obj 397 147 route aux;
#X obj 397 181 s aux;
#X obj 77 247 s knob4;
#X obj 77 221 / 1024;
#X obj 140 171 - 1023;
#X obj 140 195 abs;
#X obj 140 171 - 1023;
#X obj 140 195 abs;
#X obj 140 221 / 1024;
#X obj 201 172 - 1023;
#X obj 201 196 abs;
#X obj 201 172 - 1023;
#X obj 201 196 abs;
#X obj 201 222 / 1024;
#X obj 264 171 - 1023;
#X obj 264 195 abs;
#X obj 264 171 - 1023;
#X obj 264 195 abs;
#X obj 264 221 / 1024;
#X obj 324 171 - 1023;
#X obj 324 195 abs;
#X obj 324 171 - 1023;
#X obj 324 195 abs;
#X obj 324 221 / 1024;
#X floatatom 65 370 5 0 0 0 - - -, f 5;
#X obj 140 246 s knob3;
#X obj 201 248 s knob2;
#X obj 264 247 s knob1;
#X obj 324 247 s vol;
#X obj 65 345 r knob1;
#X floatatom 130 369 5 0 0 0 - - -, f 5;
#X floatatom 192 368 5 0 0 0 - - -, f 5;
#X floatatom 254 367 5 0 0 0 - - -, f 5;
#X floatatom 349 367 5 0 0 0 - - -, f 5;
#X obj 130 343 r knob2;
#X obj 192 343 r knob3;
#X obj 254 342 r knob4;
#X obj 349 342 r vol;
#X obj 280 428 r notes;
#X obj 280 456 unpack 0 0;
#X floatatom 280 482 5 0 0 0 - - -, f 5;
#X floatatom 347 481 5 0 0 0 - - -, f 5;
#X obj 66 447 r aux;
#X floatatom 66 473 5 0 0 0 - - -, f 5;
#X obj 554 293 catch~ outL;
#X obj 649 293 catch~ outR;
#X obj 596 402 dac~;
#X obj 861 307 adc~;
#X obj 978 421 vu 15 120 empty empty -1 -8 0 10 -66577 -1 1 0;
#X obj 979 385 - 100;
#X obj 977 361 env~ 4096;
#X obj 1060 420 vu 15 120 empty empty -1 -8 0 10 -66577 -1 1 0;
#X obj 1061 384 - 100;
#X obj 1059 360 env~ 4096;
#X obj 657 417 vu 15 120 empty empty -1 -8 0 10 -66577 -1 1 0;
#X obj 658 381 - 100;
#X obj 656 357 env~ 4096;
#X obj 739 416 vu 15 120 empty empty -1 -8 0 10 -66577 -1 1 0;
#X obj 740 380 - 100;
#X obj 738 356 env~ 4096;
#X obj 835 414 s~ inL;
#X obj 901 415 s~ inR;
#X connect 0 0 1 0;
#X connect 0 0 16 0;
#X connect 0 0 18 0;
#X connect 1 0 17 0;
#X connect 2 0 3 0;
#X connect 3 0 21 0;
#X connect 4 0 5 0;
#X connect 8 0 10 0;
#X connect 8 0 11 0;
#X connect 10 0 7 0;
#X connect 10 0 9 0;
#X connect 11 0 12 0;
#X connect 13 0 14 0;
#X connect 13 1 15 2;
#X connect 14 0 15 0;
#X connect 14 1 15 1;
#X connect 16 0 6 0;
#X connect 17 0 2 0;
#X connect 17 1 22 0;
#X connect 17 2 27 0;
#X connect 17 3 32 0;
#X connect 17 4 37 0;
#X connect 18 0 19 0;
#X connect 21 0 20 0;
#X connect 22 0 23 0;
#X connect 23 0 26 0;
#X connect 24 0 25 0;
#X connect 26 0 43 0;
#X connect 27 0 28 0;
#X connect 28 0 31 0;
#X connect 29 0 30 0;
#X connect 31 0 44 0;
#X connect 32 0 33 0;
#X connect 33 0 36 0;
#X connect 34 0 35 0;
#X connect 36 0 45 0;
#X connect 37 0 38 0;
#X connect 38 0 41 0;
#X connect 39 0 40 0;
#X connect 41 0 46 0;
#X connect 47 0 42 0;
#X connect 52 0 48 0;
#X connect 53 0 49 0;
#X connect 54 0 50 0;
#X connect 55 0 51 0;
#X connect 56 0 57 0;
#X connect 57 0 58 0;
#X connect 57 1 59 0;
#X connect 60 0 61 0;
#X connect 62 0 64 0;
#X connect 62 0 74 0;
#X connect 63 0 64 1;
#X connect 63 0 77 0;
#X connect 65 0 68 0;
#X connect 65 0 78 0;
#X connect 65 1 71 0;
#X connect 65 1 79 0;
#X connect 67 0 66 0;
#X connect 68 0 67 0;
#X connect 70 0 69 0;
#X connect 71 0 70 0;
#X connect 73 0 72 0;
#X connect 74 0 73 0;
#X connect 76 0 75 0;
#X connect 77 0 76 0;
