#N canvas 608 127 631 573 10;
#X obj 49 105 netreceive 4567 1;
#X obj 53 162 route knobs;
#X obj 32 310 s knob1;
#X obj 70 342 s knob2;
#X obj 103 389 s knob3;
#X obj 149 417 s knob4;
#X obj 32 285 / 1024;
#X obj 88 311 / 1024;
#X obj 124 362 / 1024;
#X obj 166 387 / 1024;
#X obj 32 231 - 1023;
#X obj 32 255 abs;
#X obj 89 257 - 1023;
#X obj 89 281 abs;
#X obj 32 231 - 1023;
#X obj 32 255 abs;
#X obj 135 309 - 1023;
#X obj 135 333 abs;
#X obj 183 328 - 1023;
#X obj 183 352 abs;
#X text 173 107 <-- UDP \, port 4567;
#X obj 191 225 bang;
#X obj 199 262 s aux;
#X obj 188 192 route aux;
#X obj 292 191 route nf no;
#X obj 306 230 s notes;
#X msg 457 60 \; pd dsp 1;
#X obj 439 -14 loadbang;
#X obj 354 79 print Running;
#X obj 439 20 delay 100;
#X obj 527 32 delay 200;
#X obj 529 68 s afterAudioStart;
#X obj 277 296 vsl 15 128 0 1024 0 0 empty empty empty 0 -9 0 10 -262144
-1 -1 4961 1;
#X obj 306 294 vsl 15 128 0 1024 0 0 empty empty empty 0 -9 0 10 -262144
-1 -1 4961 1;
#X obj 335 298 vsl 15 128 0 1024 0 0 empty empty empty 0 -9 0 10 -262144
-1 -1 4961 1;
#X obj 368 297 vsl 15 128 0 1024 0 0 empty empty empty 0 -9 0 10 -262144
-1 -1 4961 1;
#X msg 456 226 400;
#X obj 308 146 print udp;
#X obj 28 355 vsl 15 128 0 1024 0 0 empty empty empty 0 -9 0 10 -262144
-1 -1 7688 1;
#X obj 51 192 unpack f f f f;
#X connect 0 0 1 0;
#X connect 0 0 23 0;
#X connect 0 0 24 0;
#X connect 1 0 39 0;
#X connect 6 0 2 0;
#X connect 7 0 3 0;
#X connect 8 0 4 0;
#X connect 9 0 5 0;
#X connect 10 0 11 0;
#X connect 11 0 6 0;
#X connect 12 0 13 0;
#X connect 13 0 7 0;
#X connect 14 0 15 0;
#X connect 16 0 17 0;
#X connect 17 0 8 0;
#X connect 18 0 19 0;
#X connect 19 0 9 0;
#X connect 21 0 22 0;
#X connect 23 0 21 0;
#X connect 24 0 25 0;
#X connect 24 1 25 0;
#X connect 27 0 29 0;
#X connect 27 0 30 0;
#X connect 29 0 26 0;
#X connect 29 0 28 0;
#X connect 30 0 31 0;
#X connect 30 0 36 0;
#X connect 32 0 6 0;
#X connect 33 0 7 0;
#X connect 34 0 8 0;
#X connect 35 0 9 0;
#X connect 36 0 32 0;
#X connect 36 0 33 0;
#X connect 36 0 34 0;
#X connect 36 0 35 0;
#X connect 39 0 10 0;
#X connect 39 1 12 0;
#X connect 39 2 16 0;
#X connect 39 3 18 0;
