#N canvas 568 137 1167 902 10;
#X text 241 47 <-- UDP \, port 3001;
#X obj 668 95 loadbang;
#X msg 1073 255 1;
#X obj 451 802 dac~;
#X obj 452 457 sig~ 400;
#X obj 534 452 sig~ 400;
#X obj 454 610 osc~;
#X obj 517 539 osc~;
#X obj 635 616 r knob1;
#X obj 607 351 r knob2;
#X obj 521 351 r knob3;
#X obj 444 354 r knob4;
#X obj 526 380 * 2000;
#X obj 602 382 * 2000;
#X obj 445 385 * 2000;
#X obj 466 724 *~;
#X obj 596 654 sig~ 1;
#X obj 453 495 lop~ 5;
#X obj 471 651 *~ 0.5;
#X obj 624 451 sig~;
#X obj 507 575 *~;
#X obj 449 583 +~;
#X obj 529 496 lop~ 5;
#X obj 624 511 lop~ 5;
#X obj 556 683 lop~ 5;
#X obj 565 716 r aux;
#X obj 456 762 *~;
#X obj 521 734 tgl 15 0 empty empty empty 17 7 0 10 -262144 -1 -1 1
1;
#X connect 1 0 2 0;
#X connect 1 0 27 0;
#X connect 4 0 17 0;
#X connect 5 0 22 0;
#X connect 6 0 18 0;
#X connect 7 0 20 0;
#X connect 8 0 16 0;
#X connect 9 0 13 0;
#X connect 10 0 12 0;
#X connect 11 0 14 0;
#X connect 12 0 5 0;
#X connect 13 0 19 0;
#X connect 14 0 4 0;
#X connect 15 0 26 0;
#X connect 16 0 24 0;
#X connect 17 0 21 0;
#X connect 18 0 15 0;
#X connect 19 0 23 0;
#X connect 20 0 21 1;
#X connect 21 0 6 0;
#X connect 22 0 7 0;
#X connect 23 0 20 1;
#X connect 24 0 15 1;
#X connect 25 0 27 0;
#X connect 26 0 3 1;
#X connect 26 0 3 0;
#X connect 27 0 26 1;
