#N canvas 0 54 1366 714 10;
#X obj 144 74 adc~;
#X obj 645 383 sig~;
#X floatatom 640 110 5 0 0 0 - - -;
#X obj 355 672 dac~;
#X obj 406 164 r knob1;
#X obj 587 90 r knob2;
#X obj 403 73 r notes;
#X obj 637 412 lop~ 5;
#X obj 195 319 *~ 1;
#X obj 361 645 *~;
#X obj 395 199 * 2000;
#X obj 360 528 vd~ del 2000;
#X obj 223 400 delwrite~ del 2000;
#X obj 661 287 r knob4;
#X obj 194 358 clip~ -0.9 0.9;
#X obj 391 389 lop~ 1;
#X obj 576 195 lop~ 5;
#X obj 578 164 sig~;
#X obj 106 354 *~;
#X obj 68 297 r~ fb;
#X obj 577 245 s~ fb;
#X obj 593 131 * 0.8;
#X obj 389 257 metro 100;
#X msg 286 175 1;
#X obj 288 149 loadbang;
#X obj 390 297 random 500;
#X obj 390 330 sig~;
#X obj 480 321 r knob3;
#X obj 479 349 * 10;
#X connect 0 0 8 0;
#X connect 0 1 8 0;
#X connect 1 0 7 0;
#X connect 2 0 21 0;
#X connect 4 0 10 0;
#X connect 5 0 21 0;
#X connect 7 0 9 1;
#X connect 8 0 14 0;
#X connect 9 0 3 0;
#X connect 9 0 3 1;
#X connect 10 0 22 1;
#X connect 11 0 9 0;
#X connect 11 0 18 0;
#X connect 13 0 1 0;
#X connect 14 0 12 0;
#X connect 14 0 9 0;
#X connect 15 0 11 0;
#X connect 16 0 20 0;
#X connect 17 0 16 0;
#X connect 18 0 14 0;
#X connect 19 0 18 1;
#X connect 21 0 17 0;
#X connect 22 0 25 0;
#X connect 23 0 22 0;
#X connect 24 0 23 0;
#X connect 25 0 26 0;
#X connect 26 0 15 0;
#X connect 27 0 28 0;
#X connect 28 0 15 1;
