#N canvas 1 52 1366 714 12;
#X obj 56 479 hip~ 5;
#N canvas 0 50 450 300 (subpatch) 0;
#X array drumsa 44104 float 0;
#X coords 0 1.02 44103 -1.02 200 130 1;
#X restore 730 38 graph;
#X obj 57 405 line~;
#X obj 592 242 loadbang;
#X text 780 199 for 4-point interpolation);
#X text 596 589 updated for Pd version 0.33;
#X text 771 158 --- 44103 samples ---;
#X obj 619 348 soundfiler;
#X msg 153 316 0;
#X obj 72 222 t b b;
#N canvas 0 50 450 300 (subpatch) 0;
#X array druma 44104 float 0;
#X coords 0 1.02 44103 -1.02 200 130 1;
#X restore 516 39 graph;
#N canvas 0 50 450 300 (subpatch) 0;
#X array drumba 44104 float 0;
#X coords 0 1.02 44103 -1.02 200 130 1;
#X restore 546 425 graph;
#X obj 57 440 tabread4~ druma;
#X obj 373 559 *~ 0.3;
#X obj 211 567 *~ 0.3;
#X obj 58 561 *~ 0.3;
#X obj 167 23 r knob1;
#X obj 29 351 pack 44100 1000;
#X msg 45 287 44100;
#X obj 96 288 * 1000;
#X obj 217 497 hip~ 5;
#X obj 218 414 line~;
#X msg 314 325 0;
#X obj 233 231 t b b;
#X obj 190 360 pack 44100 1000;
#X msg 206 296 44100;
#X obj 257 297 * 1000;
#X obj 375 488 hip~ 5;
#X obj 376 414 line~;
#X msg 472 325 0;
#X obj 391 231 t b b;
#X obj 348 360 pack 44100 1000;
#X msg 364 296 44100;
#X obj 415 297 * 1000;
#X obj 218 449 tabread4~ drumsa;
#X obj 376 449 tabread4~ drumba;
#X obj 299 57 r knob2;
#X obj 457 57 r knob3;
#X obj 986 47 r knob4;
#X obj 1040 683 dac~;
#X obj 1059 524 vd~ del 2000;
#X obj 933 423 delwrite~ del 2000;
#X obj 879 369 clip~ -0.9 0.9;
#X obj 1076 399 lop~ 1;
#X obj 791 365 *~ 0.66;
#X obj 1046 656 *~ 1;
#X msg 610 270 read ./ht7d0.wav druma;
#X msg 553 291 read ./SFLTOM2.WAV drumba;
#X msg 717 321 read ./TomloOrig.wav drumsa;
#X obj 170 130 metro;
#X msg 169 93 1;
#X obj 178 56 * 1000;
#X obj 91 135 metro;
#X msg 89 100 1;
#X obj 258 131 metro;
#X msg 257 94 1;
#X obj 90 63 * 500;
#X obj 238 54 * 1500;
#X obj 1049 219 * 1000;
#X connect 0 0 15 0;
#X connect 2 0 12 0;
#X connect 3 0 46 0;
#X connect 3 0 47 0;
#X connect 3 0 48 0;
#X connect 3 0 50 0;
#X connect 3 0 55 0;
#X connect 3 0 53 0;
#X connect 8 0 2 0;
#X connect 9 0 18 0;
#X connect 9 1 8 0;
#X connect 12 0 0 0;
#X connect 13 0 42 0;
#X connect 14 0 42 0;
#X connect 15 0 42 0;
#X connect 16 0 51 0;
#X connect 16 0 57 0;
#X connect 16 0 56 0;
#X connect 17 0 2 0;
#X connect 18 0 17 0;
#X connect 19 0 17 1;
#X connect 20 0 14 0;
#X connect 21 0 34 0;
#X connect 22 0 21 0;
#X connect 23 0 25 0;
#X connect 23 1 22 0;
#X connect 24 0 21 0;
#X connect 25 0 24 0;
#X connect 26 0 24 1;
#X connect 27 0 13 0;
#X connect 28 0 35 0;
#X connect 29 0 28 0;
#X connect 30 0 32 0;
#X connect 30 1 29 0;
#X connect 31 0 28 0;
#X connect 32 0 31 0;
#X connect 33 0 31 1;
#X connect 34 0 20 0;
#X connect 35 0 27 0;
#X connect 36 0 19 0;
#X connect 36 0 26 0;
#X connect 36 0 33 0;
#X connect 37 0 44 1;
#X connect 38 0 58 0;
#X connect 40 0 44 0;
#X connect 40 0 45 0;
#X connect 42 0 41 0;
#X connect 42 0 45 0;
#X connect 43 0 40 0;
#X connect 44 0 42 0;
#X connect 45 0 39 0;
#X connect 45 0 39 1;
#X connect 46 0 7 0;
#X connect 47 0 7 0;
#X connect 48 0 7 0;
#X connect 49 0 23 0;
#X connect 50 0 49 0;
#X connect 51 0 49 1;
#X connect 52 0 9 0;
#X connect 53 0 52 0;
#X connect 54 0 30 0;
#X connect 55 0 54 0;
#X connect 56 0 52 1;
#X connect 57 0 54 1;
#X connect 58 0 43 0;
