#N canvas 0 54 1366 714 12;
#X obj 56 479 hip~ 5;
#X obj 57 405 line~;
#X obj 1095 -6 loadbang;
#X text 596 589 updated for Pd version 0.33;
#X obj 1110 265 soundfiler;
#X msg 143 311 0;
#X obj 68 269 t b b;
#X obj 68 244 bng 15 250 50 0 empty empty empty 17 7 0 10 -262144 -1
-1;
#N canvas 0 0 450 300 (subpatch) 0;
#X array druma 44104 float 0;
#X coords 0 1.02 44103 -1.02 200 130 1;
#X restore 1093 335 graph;
#X obj 57 440 tabread4~ druma;
#X obj 271 654 dac~;
#X obj 29 351 pack 44100 1000;
#X msg 42 303 44100;
#X obj 784 31 r knob4;
#X msg 1143 144 read ./trumpet.wav druma;
#X obj 558 541 *~ 0.25;
#X obj 376 541 *~ 0.25;
#X obj 217 540 *~ 0.25;
#X obj 57 536 *~ 0.25;
#N canvas 0 54 1366 714 notes 0;
#X obj 225 5 loadbang;
#X obj 1195 166 r knob1;
#X obj 534 264 qlist;
#X floatatom 534 318 0 0 0 0 - - -;
#X msg 534 139 bang;
#X obj 548 292 print done;
#X text 1361 346 read a file;
#X text 1425 373 write one;
#X text 1530 290 add a message to a qlist;
#X msg 596 119 print;
#X msg 397 78 read what.txt;
#X obj 1151 203 * 100;
#X floatatom 667 96 5 0 0 0 - - -;
#X msg 633 149 tempo \$1;
#X obj 680 46 r knob3;
#X obj 686 67 * 3;
#X msg 452 52 read bvw807.txt;
#X connect 0 0 16 0;
#X connect 1 0 11 0;
#X connect 2 0 3 0;
#X connect 2 1 5 0;
#X connect 2 1 4 0;
#X connect 4 0 2 0;
#X connect 9 0 2 0;
#X connect 10 0 2 0;
#X connect 12 0 13 0;
#X connect 13 0 2 0;
#X connect 14 0 15 0;
#X connect 15 0 12 0;
#X connect 16 0 2 0;
#X connect 16 0 4 0;
#X restore 785 451 pd notes;
#X obj 365 11 mtof;
#X obj 214 10 mtof;
#X obj 47 -1 r track1;
#X obj 47 28 mtof;
#X obj 565 12 mtof;
#X obj 214 -19 r track2;
#X obj 365 -18 r track3;
#X obj 565 -17 r track4;
#X obj 93 304 * 1;
#X obj 43 57 t b f;
#X obj 80 89 / 1;
#X floatatom 78 117 8 0 0 0 - - -;
#X obj 77 142 * 1;
#X obj 777 65 * 2;
#X obj 202 46 t b f;
#X obj 239 78 / 1;
#X floatatom 235 115 8 0 0 0 - - -;
#X obj 348 49 t b f;
#X obj 385 81 / 1;
#X floatatom 379 119 8 0 0 0 - - -;
#X obj 556 49 t b f;
#X obj 593 81 / 1;
#X floatatom 587 119 8 0 0 0 - - -;
#X floatatom 638 47 8 0 0 0 - - -;
#X msg 17 87 500000;
#X msg 176 76 500000;
#X msg 322 79 500000;
#X msg 530 79 500000;
#X msg 835 377 bang;
#X obj 784 359 adc~;
#X obj 976 263 r aux;
#X obj 786 420 tabwrite~ druma;
#X obj 110 479 line~;
#X obj 80 168 t f b;
#X msg 148 396 0 2;
#X obj 68 196 t b f;
#X msg 109 399 1 1;
#X obj 230 138 * 1;
#X obj 383 148 * 1;
#X obj 572 142 * 1;
#X obj 67 219 delay 2;
#X obj 57 506 *~;
#X obj 205 479 hip~ 5;
#X obj 206 405 line~;
#X msg 292 311 0;
#X obj 217 269 t b b;
#X obj 217 244 bng 15 250 50 0 empty empty empty 17 7 0 10 -262144
-1 -1;
#X obj 206 440 tabread4~ druma;
#X obj 178 351 pack 44100 1000;
#X msg 191 303 44100;
#X obj 242 304 * 1;
#X obj 259 479 line~;
#X obj 229 168 t f b;
#X msg 297 396 0 2;
#X obj 217 196 t b f;
#X msg 258 399 1 1;
#X obj 216 219 delay 2;
#X obj 206 506 *~;
#X obj 359 485 hip~ 5;
#X obj 360 411 line~;
#X msg 446 317 0;
#X obj 371 275 t b b;
#X obj 371 250 bng 15 250 50 0 empty empty empty 17 7 0 10 -262144
-1 -1;
#X obj 360 446 tabread4~ druma;
#X obj 332 357 pack 44100 1000;
#X msg 345 309 44100;
#X obj 396 310 * 1;
#X obj 413 485 line~;
#X obj 383 174 t f b;
#X msg 451 402 0 2;
#X obj 371 202 t b f;
#X msg 412 405 1 1;
#X obj 370 225 delay 2;
#X obj 360 512 *~;
#X obj 549 481 hip~ 5;
#X obj 550 407 line~;
#X msg 636 313 0;
#X obj 561 271 t b b;
#X obj 561 246 bng 15 250 50 0 empty empty empty 17 7 0 10 -262144
-1 -1;
#X obj 550 442 tabread4~ druma;
#X obj 522 353 pack 44100 1000;
#X msg 535 305 44100;
#X obj 586 306 * 1;
#X obj 603 481 line~;
#X obj 573 170 t f b;
#X msg 641 398 0 2;
#X obj 561 198 t b f;
#X msg 602 401 1 1;
#X obj 560 221 delay 2;
#X obj 550 508 *~;
#X msg 903 440 \; druma normalize 1;
#X obj 915 375 delay 3000;
#X connect 0 0 61 0;
#X connect 1 0 9 0;
#X connect 2 0 14 0;
#X connect 5 0 1 0;
#X connect 6 0 12 0;
#X connect 6 1 5 0;
#X connect 7 0 6 0;
#X connect 7 0 56 0;
#X connect 9 0 0 0;
#X connect 11 0 1 0;
#X connect 12 0 11 0;
#X connect 13 0 33 0;
#X connect 14 0 4 0;
#X connect 15 0 10 0;
#X connect 15 0 10 1;
#X connect 16 0 10 0;
#X connect 16 0 10 1;
#X connect 17 0 10 1;
#X connect 17 0 10 0;
#X connect 18 0 10 1;
#X connect 18 0 10 0;
#X connect 20 0 37 0;
#X connect 21 0 34 0;
#X connect 22 0 23 0;
#X connect 23 0 29 0;
#X connect 24 0 40 0;
#X connect 24 0 43 0;
#X connect 25 0 21 0;
#X connect 26 0 20 0;
#X connect 27 0 24 0;
#X connect 28 0 11 1;
#X connect 29 0 44 0;
#X connect 29 1 30 1;
#X connect 30 0 31 0;
#X connect 31 0 32 0;
#X connect 32 0 53 0;
#X connect 33 0 32 1;
#X connect 33 0 58 1;
#X connect 33 0 59 1;
#X connect 33 0 57 1;
#X connect 34 0 45 0;
#X connect 34 1 35 1;
#X connect 35 0 36 0;
#X connect 36 0 57 0;
#X connect 37 0 46 0;
#X connect 37 1 38 1;
#X connect 38 0 39 0;
#X connect 39 0 58 0;
#X connect 40 0 47 0;
#X connect 40 1 41 1;
#X connect 41 0 42 0;
#X connect 42 0 59 0;
#X connect 44 0 30 0;
#X connect 45 0 35 0;
#X connect 46 0 38 0;
#X connect 47 0 41 0;
#X connect 48 0 51 0;
#X connect 48 0 111 0;
#X connect 49 0 51 0;
#X connect 49 1 51 0;
#X connect 50 0 48 0;
#X connect 52 0 61 1;
#X connect 53 0 55 0;
#X connect 53 1 54 0;
#X connect 54 0 52 0;
#X connect 55 0 60 0;
#X connect 55 1 28 0;
#X connect 56 0 52 0;
#X connect 57 0 72 0;
#X connect 58 0 88 0;
#X connect 59 0 104 0;
#X connect 60 0 7 0;
#X connect 61 0 18 0;
#X connect 62 0 77 0;
#X connect 63 0 67 0;
#X connect 64 0 63 0;
#X connect 65 0 69 0;
#X connect 65 1 64 0;
#X connect 66 0 65 0;
#X connect 66 0 75 0;
#X connect 67 0 62 0;
#X connect 68 0 63 0;
#X connect 69 0 68 0;
#X connect 70 0 68 1;
#X connect 71 0 77 1;
#X connect 72 0 74 0;
#X connect 72 1 73 0;
#X connect 73 0 71 0;
#X connect 74 0 76 0;
#X connect 74 1 70 0;
#X connect 75 0 71 0;
#X connect 76 0 66 0;
#X connect 77 0 17 0;
#X connect 78 0 93 0;
#X connect 79 0 83 0;
#X connect 80 0 79 0;
#X connect 81 0 85 0;
#X connect 81 1 80 0;
#X connect 82 0 81 0;
#X connect 82 0 91 0;
#X connect 83 0 78 0;
#X connect 84 0 79 0;
#X connect 85 0 84 0;
#X connect 86 0 84 1;
#X connect 87 0 93 1;
#X connect 88 0 90 0;
#X connect 88 1 89 0;
#X connect 89 0 87 0;
#X connect 90 0 92 0;
#X connect 90 1 86 0;
#X connect 91 0 87 0;
#X connect 92 0 82 0;
#X connect 93 0 16 0;
#X connect 94 0 109 0;
#X connect 95 0 99 0;
#X connect 96 0 95 0;
#X connect 97 0 101 0;
#X connect 97 1 96 0;
#X connect 98 0 97 0;
#X connect 98 0 107 0;
#X connect 99 0 94 0;
#X connect 100 0 95 0;
#X connect 101 0 100 0;
#X connect 102 0 100 1;
#X connect 103 0 109 1;
#X connect 104 0 106 0;
#X connect 104 1 105 0;
#X connect 105 0 103 0;
#X connect 106 0 108 0;
#X connect 106 1 102 0;
#X connect 107 0 103 0;
#X connect 108 0 98 0;
#X connect 109 0 15 0;
#X connect 111 0 110 0;
