#N canvas 0 54 1946 1245 12;
#X obj 228 750 hip~ 5;
#X obj 229 676 line~;
#X obj 1287 465 loadbang;
#X text 768 860 updated for Pd version 0.33;
#X obj 1282 536 soundfiler;
#X msg 315 582 0;
#X obj 240 540 t b b;
#X obj 240 515 bng 15 250 50 0 empty empty empty 17 7 0 10 -262144
-1 -1;
#N canvas 0 22 450 300 (subpatch) 0;
#X array druma 44104 float 0;
#X coords 0 1.02 44103 -1.02 200 130 1;
#X restore 1265 606 graph;
#X obj 229 711 tabread4~ druma;
#X obj 410 951 dac~;
#X obj 201 622 pack 44100 1000;
#X msg 214 574 44100;
#X obj 909 292 r knob4;
#X msg 1280 502 read ./trumpet.wav druma;
#X obj 730 812 *~ 0.25;
#X obj 548 812 *~ 0.25;
#X obj 389 811 *~ 0.25;
#X obj 229 807 *~ 0.25;
#X obj 537 282 mtof;
#X obj 386 281 mtof;
#X obj 219 270 r track1;
#X obj 219 299 mtof;
#X obj 737 283 mtof;
#X obj 383 247 r track2;
#X obj 537 253 r track3;
#X obj 737 254 r track4;
#X obj 265 575 * 1;
#X obj 215 328 t b f;
#X obj 252 360 / 1;
#X floatatom 250 388 8 0 0 0 - - -, f 8;
#X obj 249 413 * 1;
#X obj 949 336 * 2;
#X obj 374 317 t b f;
#X obj 411 349 / 1;
#X floatatom 407 386 8 0 0 0 - - -, f 8;
#X obj 520 320 t b f;
#X obj 557 352 / 1;
#X floatatom 551 390 8 0 0 0 - - -, f 8;
#X obj 728 320 t b f;
#X obj 765 352 / 1;
#X floatatom 759 390 8 0 0 0 - - -, f 8;
#X floatatom 810 318 8 0 0 0 - - -, f 8;
#X msg 189 358 500000;
#X msg 348 347 500000;
#X msg 494 350 500000;
#X msg 702 350 500000;
#X msg 1007 648 bang;
#X obj 956 630 adc~;
#X obj 1148 534 r aux;
#X obj 958 691 tabwrite~ druma;
#X obj 282 750 line~;
#X obj 252 439 t f b;
#X msg 320 667 0 2;
#X obj 240 467 t b f;
#X msg 281 670 1 1;
#X obj 402 409 * 1;
#X obj 555 419 * 1;
#X obj 744 413 * 1;
#X obj 239 490 delay 2;
#X obj 229 777 *~;
#X obj 377 750 hip~ 5;
#X obj 378 676 line~;
#X msg 464 582 0;
#X obj 389 540 t b b;
#X obj 389 515 bng 15 250 50 0 empty empty empty 17 7 0 10 -262144
-1 -1;
#X obj 378 711 tabread4~ druma;
#X obj 350 622 pack 44100 1000;
#X msg 363 574 44100;
#X obj 414 575 * 1;
#X obj 431 750 line~;
#X obj 401 439 t f b;
#X msg 469 667 0 2;
#X obj 389 467 t b f;
#X msg 430 670 1 1;
#X obj 388 490 delay 2;
#X obj 378 777 *~;
#X obj 531 756 hip~ 5;
#X obj 532 682 line~;
#X msg 618 588 0;
#X obj 543 546 t b b;
#X obj 543 521 bng 15 250 50 0 empty empty empty 17 7 0 10 -262144
-1 -1;
#X obj 532 717 tabread4~ druma;
#X obj 504 628 pack 44100 1000;
#X msg 517 580 44100;
#X obj 568 581 * 1;
#X obj 585 756 line~;
#X obj 555 445 t f b;
#X msg 623 673 0 2;
#X obj 543 473 t b f;
#X msg 584 676 1 1;
#X obj 542 496 delay 2;
#X obj 532 783 *~;
#X obj 721 752 hip~ 5;
#X obj 722 678 line~;
#X msg 808 584 0;
#X obj 733 542 t b b;
#X obj 733 517 bng 15 250 50 0 empty empty empty 17 7 0 10 -262144
-1 -1;
#X obj 722 713 tabread4~ druma;
#X obj 694 624 pack 44100 1000;
#X msg 707 576 44100;
#X obj 758 577 * 1;
#X obj 775 752 line~;
#X obj 745 441 t f b;
#X msg 813 669 0 2;
#X obj 733 469 t b f;
#X msg 774 672 1 1;
#X obj 732 492 delay 2;
#X obj 722 779 *~;
#X msg 1075 711 \; druma normalize 1;
#X obj 1087 646 delay 3000;
#X obj 450 -61 pack f f f;
#X text 208 -287 MIDI note number and velocity...;
#X text 535 19 <-- sends the note number and velocity to the appropriate
voice number.;
#X text 510 -100 <-- first argument is the maximum number of voices.
Giving 1 as the second argument activates voice-stealing.;
#X msg 362 -154 stop;
#X text 133 -155 send note-offs for all active voices;
#X obj 459 -112 poly 4 1;
#X obj 438 -197 + 36;
#X obj 411 -284 unpack 0 0 0;
#X obj 392 -309 r notes;
#X text 515 -288 comment;
#X obj 295 70 unpack 0 0;
#X obj 395 72 unpack 0 0;
#X obj 506 71 unpack 0 0;
#X obj 628 72 unpack 0 0;
#X obj 330 118 f;
#X obj 274 119 t b f;
#X obj 262 182 f;
#X obj 335 147 > 0;
#X obj 326 180 sel 1;
#X obj 446 114 f;
#X obj 390 115 t b f;
#X obj 403 165 f;
#X obj 456 155 > 0;
#X obj 444 188 sel 1;
#X obj 569 107 f;
#X obj 513 108 t b f;
#X obj 526 158 f;
#X obj 579 148 > 0;
#X obj 567 181 sel 1;
#X obj 697 117 f;
#X obj 641 118 t b f;
#X obj 654 168 f;
#X obj 707 158 > 0;
#X obj 695 191 sel 1;
#X obj 393 864 *~ 0.5;
#X obj 406 908 *~ 1;
#X msg 1141 186 1;
#X obj 1191 64 r knob2;
#X obj 1066 261 random 4;
#X msg 1245 262 100;
#X obj 1150 264 random 100;
#X obj 1117 215 metro 1000;
#X obj 440 20 route 0 1 2 3;
#X obj 1218 125 * 10000;
#X connect 0 0 60 0;
#X connect 1 0 9 0;
#X connect 2 0 14 0;
#X connect 2 0 148 0;
#X connect 5 0 1 0;
#X connect 6 0 12 0;
#X connect 6 1 5 0;
#X connect 7 0 6 0;
#X connect 7 0 55 0;
#X connect 9 0 0 0;
#X connect 11 0 1 0;
#X connect 12 0 11 0;
#X connect 13 0 32 0;
#X connect 14 0 4 0;
#X connect 15 0 146 0;
#X connect 16 0 146 0;
#X connect 17 0 146 0;
#X connect 18 0 146 0;
#X connect 19 0 36 0;
#X connect 20 0 33 0;
#X connect 21 0 22 0;
#X connect 22 0 28 0;
#X connect 23 0 39 0;
#X connect 23 0 42 0;
#X connect 24 0 20 0;
#X connect 25 0 19 0;
#X connect 26 0 23 0;
#X connect 27 0 11 1;
#X connect 28 0 43 0;
#X connect 28 1 29 1;
#X connect 29 0 30 0;
#X connect 30 0 31 0;
#X connect 31 0 52 0;
#X connect 32 0 31 1;
#X connect 32 0 57 1;
#X connect 32 0 58 1;
#X connect 32 0 56 1;
#X connect 33 0 44 0;
#X connect 33 1 34 1;
#X connect 34 0 35 0;
#X connect 35 0 56 0;
#X connect 36 0 45 0;
#X connect 36 1 37 1;
#X connect 37 0 38 0;
#X connect 38 0 57 0;
#X connect 39 0 46 0;
#X connect 39 1 40 1;
#X connect 40 0 41 0;
#X connect 41 0 58 0;
#X connect 43 0 29 0;
#X connect 44 0 34 0;
#X connect 45 0 37 0;
#X connect 46 0 40 0;
#X connect 47 0 50 0;
#X connect 47 0 110 0;
#X connect 48 0 50 0;
#X connect 48 1 50 0;
#X connect 49 0 47 0;
#X connect 51 0 60 1;
#X connect 52 0 54 0;
#X connect 52 1 53 0;
#X connect 53 0 51 0;
#X connect 54 0 59 0;
#X connect 54 1 27 0;
#X connect 55 0 51 0;
#X connect 56 0 71 0;
#X connect 57 0 87 0;
#X connect 58 0 103 0;
#X connect 59 0 7 0;
#X connect 60 0 18 0;
#X connect 61 0 76 0;
#X connect 62 0 66 0;
#X connect 63 0 62 0;
#X connect 64 0 68 0;
#X connect 64 1 63 0;
#X connect 65 0 64 0;
#X connect 65 0 74 0;
#X connect 66 0 61 0;
#X connect 67 0 62 0;
#X connect 68 0 67 0;
#X connect 69 0 67 1;
#X connect 70 0 76 1;
#X connect 71 0 73 0;
#X connect 71 1 72 0;
#X connect 72 0 70 0;
#X connect 73 0 75 0;
#X connect 73 1 69 0;
#X connect 74 0 70 0;
#X connect 75 0 65 0;
#X connect 76 0 17 0;
#X connect 77 0 92 0;
#X connect 78 0 82 0;
#X connect 79 0 78 0;
#X connect 80 0 84 0;
#X connect 80 1 79 0;
#X connect 81 0 80 0;
#X connect 81 0 90 0;
#X connect 82 0 77 0;
#X connect 83 0 78 0;
#X connect 84 0 83 0;
#X connect 85 0 83 1;
#X connect 86 0 92 1;
#X connect 87 0 89 0;
#X connect 87 1 88 0;
#X connect 88 0 86 0;
#X connect 89 0 91 0;
#X connect 89 1 85 0;
#X connect 90 0 86 0;
#X connect 91 0 81 0;
#X connect 92 0 16 0;
#X connect 93 0 108 0;
#X connect 94 0 98 0;
#X connect 95 0 94 0;
#X connect 96 0 100 0;
#X connect 96 1 95 0;
#X connect 97 0 96 0;
#X connect 97 0 106 0;
#X connect 98 0 93 0;
#X connect 99 0 94 0;
#X connect 100 0 99 0;
#X connect 101 0 99 1;
#X connect 102 0 108 1;
#X connect 103 0 105 0;
#X connect 103 1 104 0;
#X connect 104 0 102 0;
#X connect 105 0 107 0;
#X connect 105 1 101 0;
#X connect 106 0 102 0;
#X connect 107 0 97 0;
#X connect 108 0 15 0;
#X connect 110 0 109 0;
#X connect 111 0 154 0;
#X connect 115 0 117 0;
#X connect 117 0 111 0;
#X connect 117 1 111 1;
#X connect 117 2 111 2;
#X connect 118 0 117 0;
#X connect 119 1 118 0;
#X connect 119 2 117 1;
#X connect 120 0 119 0;
#X connect 122 0 127 0;
#X connect 122 1 126 1;
#X connect 123 0 132 0;
#X connect 123 1 131 1;
#X connect 124 0 137 0;
#X connect 124 1 136 1;
#X connect 125 0 142 0;
#X connect 125 1 141 1;
#X connect 126 0 129 0;
#X connect 127 0 126 0;
#X connect 127 1 128 1;
#X connect 128 0 22 0;
#X connect 129 0 130 0;
#X connect 130 0 128 0;
#X connect 131 0 134 0;
#X connect 132 0 131 0;
#X connect 132 1 133 1;
#X connect 133 0 20 0;
#X connect 134 0 135 0;
#X connect 135 0 133 0;
#X connect 136 0 139 0;
#X connect 137 0 136 0;
#X connect 137 1 138 1;
#X connect 138 0 19 0;
#X connect 139 0 140 0;
#X connect 140 0 138 0;
#X connect 141 0 144 0;
#X connect 142 0 141 0;
#X connect 142 1 143 1;
#X connect 143 0 23 0;
#X connect 144 0 145 0;
#X connect 145 0 143 0;
#X connect 146 0 147 0;
#X connect 147 0 10 0;
#X connect 147 0 10 1;
#X connect 148 0 153 0;
#X connect 149 0 155 0;
#X connect 150 0 111 0;
#X connect 151 0 111 2;
#X connect 152 0 111 1;
#X connect 153 0 150 0;
#X connect 153 0 151 0;
#X connect 153 0 152 0;
#X connect 154 0 122 0;
#X connect 154 1 123 0;
#X connect 154 2 124 0;
#X connect 154 3 125 0;
#X connect 155 0 153 1;
