#N canvas 196 159 1600 820 10;
#X obj 403 477 pack f f f;
#X floatatom 353 363 5 0 0 0 - - -, f 5;
#X floatatom 353 383 5 0 0 0 - - -, f 5;
#X floatatom 353 403 5 0 0 0 - - -, f 5;
#X text 274 362 voice number;
#X text 279 382 note number;
#X text 295 402 velocity;
#X obj 402 516 route 1 2 3 4;
#X text 125 38 MIDI note number and velocity...;
#X obj 371 593 tgl 15 0 empty empty 1 5 8 0 10 -262144 -1 -1 0 1;
#X text 497 515 <-- sends the note number and velocity to the appropriate
voice number.;
#X msg 279 171 stop;
#X text 50 170 send note-offs for all active voices;
#X obj 441 593 tgl 15 0 empty empty 2 5 8 0 10 -262144 -1 -1 0 1;
#X obj 511 593 tgl 15 0 empty empty 3 5 8 0 10 -262144 -1 -1 0 1;
#X obj 581 593 tgl 15 0 empty empty 4 5 8 0 10 -262144 -1 -1 0 1;
#X text 57 569 Look inside [pd voice] for some extra tips.;
#X obj 406 310 poly 4 1;
#X text 850 700 .mmb;
#X text 849 665 .oso;
#X obj 355 128 + 36;
#X obj 616 235 send~ f;
#X obj 626 180 sig~;
#X obj 626 157 + 0.05;
#X floatatom 594 94 5 0 0 0 - - -, f 5;
#X floatatom 731 104 5 0 0 0 - - -, f 5;
#X obj 396 569 simple 1;
#X obj 1019 618 dac~;
#X obj 681 535 r knob1;
#X obj 645 126 * 0.5;
#X obj 328 41 unpack 0 0 0;
#X obj 309 16 r notes;
#X obj 618 209 lop~ 5;
#X obj 609 644 lop~ 5;
#X obj 646 593 sig~;
#X obj 661 564 * 0.25;
#X text 432 37 comment;
#X obj 541 156 s dur;
#X obj 544 114 * 1000;
#X obj 326 570 simple 0;
#X obj 466 569 simple 2;
#X obj 536 569 simple 3;
#X text 822 177 for 4-point interpolation);
#X obj 921 347 clip~ -0.9 0.9;
#X obj 1117 469 lop~ 1;
#X obj 1048 554 *~ 1;
#X obj 1127 442 * 1000;
#X obj 877 429 *~ 0.66;
#X obj 642 85 r knob3;
#X obj 541 74 r knob4;
#X obj 910 395 r knob2;
#X obj 1130 411 r knob1;
#X obj 424 743 *~ 0.5;
#X obj 975 401 delwrite~ synth2_del 2000;
#X obj 1101 502 vd~ synth2_del 2000;
#X connect 0 0 7 0;
#X connect 7 0 39 0;
#X connect 7 1 26 0;
#X connect 7 2 40 0;
#X connect 7 3 41 0;
#X connect 11 0 17 0;
#X connect 17 0 0 0;
#X connect 17 0 1 0;
#X connect 17 1 2 0;
#X connect 17 1 0 1;
#X connect 17 2 0 2;
#X connect 17 2 3 0;
#X connect 20 0 17 0;
#X connect 22 0 32 0;
#X connect 23 0 22 0;
#X connect 24 0 38 0;
#X connect 25 0 29 0;
#X connect 26 0 52 0;
#X connect 26 1 13 0;
#X connect 28 0 35 0;
#X connect 29 0 23 0;
#X connect 30 1 20 0;
#X connect 30 2 17 1;
#X connect 31 0 30 0;
#X connect 32 0 21 0;
#X connect 34 0 33 0;
#X connect 35 0 34 0;
#X connect 38 0 37 0;
#X connect 39 0 52 0;
#X connect 40 0 52 0;
#X connect 40 1 14 0;
#X connect 41 0 52 0;
#X connect 41 1 15 0;
#X connect 43 0 45 0;
#X connect 43 0 53 0;
#X connect 44 0 54 0;
#X connect 45 0 27 0;
#X connect 45 0 27 1;
#X connect 46 0 44 0;
#X connect 47 0 43 0;
#X connect 48 0 29 0;
#X connect 49 0 38 0;
#X connect 50 0 47 1;
#X connect 51 0 46 0;
#X connect 52 0 43 0;
#X connect 54 0 45 0;
#X connect 54 0 47 0;
