#N canvas 142 259 1366 714 10;
#X text 241 47 <-- UDP \, port 3001;
#X obj 407 35 loadbang;
#X obj 456 631 dac~;
#X obj 330 411 osc~;
#X obj 404 401 osc~;
#X obj 1195 166 r knob1;
#X obj 276 139 r knob2;
#X obj 979 190 r knob4;
#X obj 988 331 lop~ 5;
#X obj 285 205 sig~;
#X obj 1064 332 lop~ 5;
#X obj 286 243 lop~ 5;
#X obj 504 392 osc~;
#X obj 868 249 qlist;
#X floatatom 868 303 0 0 0 0 - - -;
#X msg 868 124 bang;
#X obj 882 277 print done;
#X text 1361 346 read a file;
#X text 1425 373 write one;
#X text 1530 290 add a message to a qlist;
#X msg 930 104 print;
#X msg 798 92 read what.txt;
#X obj 661 193 mtof;
#X floatatom 642 216 5 0 0 0 - - -, f 5;
#X obj 1069 288 sig~ 400;
#X obj 607 419 osc~;
#X obj 612 464 *~ 0.25;
#X obj 507 447 *~ 0.25;
#X obj 425 447 *~ 0.25;
#X obj 347 452 *~ 0.25;
#X obj 581 190 mtof;
#X floatatom 562 213 5 0 0 0 - - -, f 5;
#X obj 508 161 r track1;
#X obj 508 190 mtof;
#X floatatom 489 213 5 0 0 0 - - -, f 5;
#X obj 735 201 mtof;
#X floatatom 716 224 5 0 0 0 - - -, f 5;
#X obj 581 161 r track2;
#X obj 661 164 r track3;
#X obj 735 172 r track4;
#X obj 432 555 *~ 1;
#X obj 275 174 * 4;
#X obj 365 279 sig~;
#X obj 473 277 sig~;
#X obj 572 270 sig~;
#X obj 661 289 sig~;
#X obj 604 351 *~;
#X obj 499 334 *~;
#X obj 413 320 *~;
#X obj 337 331 *~;
#X obj 602 389 lop~;
#X obj 497 365 lop~;
#X obj 405 361 lop~;
#X obj 322 373 lop~;
#X obj 1151 203 * 100;
#X floatatom 1001 81 5 0 0 0 - - -, f 5;
#X msg 967 134 tempo \$1;
#X obj 1014 31 r knob3;
#X obj 1020 52 * 3;
#X obj 461 591 *~ 0.25;
#X connect 1 0 21 0;
#X connect 1 0 15 0;
#X connect 3 0 29 0;
#X connect 4 0 28 0;
#X connect 5 0 54 0;
#X connect 6 0 41 0;
#X connect 7 0 8 0;
#X connect 9 0 11 0;
#X connect 11 0 49 0;
#X connect 11 0 48 0;
#X connect 11 0 47 0;
#X connect 11 0 46 0;
#X connect 12 0 27 0;
#X connect 13 0 14 0;
#X connect 13 1 16 0;
#X connect 13 1 15 0;
#X connect 15 0 13 0;
#X connect 20 0 13 0;
#X connect 21 0 13 0;
#X connect 22 0 23 0;
#X connect 23 0 44 0;
#X connect 24 0 10 0;
#X connect 25 0 26 0;
#X connect 26 0 40 0;
#X connect 27 0 40 0;
#X connect 28 0 40 0;
#X connect 29 0 40 0;
#X connect 30 0 31 0;
#X connect 31 0 43 0;
#X connect 32 0 33 0;
#X connect 33 0 34 0;
#X connect 34 0 42 0;
#X connect 35 0 36 0;
#X connect 36 0 45 0;
#X connect 37 0 30 0;
#X connect 38 0 22 0;
#X connect 39 0 35 0;
#X connect 40 0 59 0;
#X connect 41 0 9 0;
#X connect 42 0 49 1;
#X connect 43 0 48 1;
#X connect 44 0 47 1;
#X connect 45 0 46 1;
#X connect 46 0 50 0;
#X connect 47 0 51 0;
#X connect 48 0 52 0;
#X connect 49 0 53 0;
#X connect 50 0 25 0;
#X connect 51 0 12 0;
#X connect 52 0 4 0;
#X connect 53 0 3 0;
#X connect 54 0 50 1;
#X connect 54 0 51 1;
#X connect 54 0 52 1;
#X connect 54 0 53 1;
#X connect 55 0 56 0;
#X connect 56 0 13 0;
#X connect 57 0 58 0;
#X connect 58 0 55 0;
#X connect 59 0 2 1;
#X connect 59 0 2 0;
