#N canvas 790 157 725 437 10;
#X obj 144 74 adc~;
#X obj 143 174 dac~;
#X obj 226 209 vu 15 120 empty empty -1 -8 0 10 -66577 -1 1 0;
#X obj 227 173 - 100;
#X obj 225 149 env~ 4096;
#X obj 308 208 vu 15 120 empty empty -1 -8 0 10 -66577 -1 1 0;
#X obj 309 172 - 100;
#X obj 307 148 env~ 4096;
#X connect 0 0 1 0;
#X connect 0 0 4 0;
#X connect 0 1 1 1;
#X connect 0 1 7 0;
#X connect 3 0 2 0;
#X connect 4 0 3 0;
#X connect 6 0 5 0;
#X connect 7 0 6 0;
