#N canvas 493 49 1149 998 10;
#X obj 144 74 adc~;
#X obj 411 270 sig~;
#X obj 645 385 sig~;
#X floatatom 640 110 5 0 0 0 - - -, f 5;
#X obj 397 306 lop~ 10;
#X obj 355 672 dac~;
#X obj 170 351 delwrite~ del 1000;
#X obj 279 479 vd~ del 500;
#X obj 106 354 *~ 0.75;
#X obj 374 342 osc~;
#X obj 562 240 s fb;
#X obj 68 297 r fb;
#X obj 369 369 +~ 2;
#X obj 364 397 *~ 3;
#X obj 441 201 r knob1;
#X obj 587 90 r knob2;
#X obj 661 288 r knob3;
#X obj 590 131 * 1;
#X obj 359 151 r notes;
#X obj 626 435 lop~ 5;
#X obj 364 578 *~;
#X obj 175 293 clip~ -0.9 0.9;
#X obj 430 236 * 2;
#X connect 0 0 21 0;
#X connect 0 1 21 0;
#X connect 1 0 4 0;
#X connect 2 0 19 0;
#X connect 3 0 17 0;
#X connect 4 0 9 0;
#X connect 7 0 8 0;
#X connect 7 0 20 0;
#X connect 8 0 21 0;
#X connect 9 0 12 0;
#X connect 11 0 8 1;
#X connect 12 0 13 0;
#X connect 13 0 7 0;
#X connect 14 0 22 0;
#X connect 15 0 17 0;
#X connect 16 0 2 0;
#X connect 17 0 10 0;
#X connect 19 0 20 1;
#X connect 20 0 5 1;
#X connect 20 0 5 0;
#X connect 21 0 6 0;
#X connect 22 0 1 0;
