#N canvas 211 22 1306 719 10;
#X obj 395 382 pack f f f;
#X floatatom 337 348 5 0 0 0 - - -, f 5;
#X floatatom 337 368 5 0 0 0 - - -, f 5;
#X floatatom 337 388 5 0 0 0 - - -, f 5;
#X text 258 347 voice number;
#X text 263 367 note number;
#X text 279 387 velocity;
#X obj 394 421 route 1 2 3 4;
#X text 125 38 MIDI note number and velocity...;
#X obj 363 498 tgl 15 0 empty empty 1 5 8 0 10 -262144 -1 -1 0 1;
#X text 489 420 <-- sends the note number and velocity to the appropriate
voice number.;
#X msg 279 171 stop;
#X obj 433 498 tgl 15 0 empty empty 2 5 8 0 10 -262144 -1 -1 0 1;
#X obj 503 498 tgl 15 0 empty empty 3 5 8 0 10 -262144 -1 -1 0 1;
#X obj 573 498 tgl 15 0 empty empty 4 5 8 0 10 -262144 -1 -1 0 1;
#X obj 406 310 poly 4 1;
#X obj 355 128 + 36;
#X obj 616 235 send~ f;
#X obj 626 180 sig~;
#X obj 626 157 + 0.05;
#X floatatom 594 91 5 0 0 0 - - -, f 5;
#X obj 1019 618 dac~;
#X obj 673 440 r knob1;
#X obj 645 126 * 0.5;
#X obj 309 16 r notes;
#X obj 618 209 lop~ 5;
#X obj 601 549 lop~ 5;
#X obj 638 498 sig~;
#X obj 653 469 * 0.25;
#X text 432 37 comment;
#X obj 541 156 s dur;
#X obj 544 114 * 1000;
#X obj 921 347 clip~ -0.9 0.9;
#X obj 1117 469 lop~ 1;
#X obj 1048 554 *~ 1;
#X obj 1127 442 * 1000;
#X obj 877 429 *~ 0.66;
#X obj 642 85 r knob3;
#X obj 541 74 r knob4;
#X obj 910 395 r knob2;
#X obj 1130 411 r knob1;
#X obj 416 648 *~ 0.5;
#X obj 975 401 delwrite~ synth2_del 2000;
#X obj 1101 502 vd~ synth2_del 2000;
#X obj 328 41 unpack 0 0;
#X floatatom 483 163 5 0 0 0 - - -, f 5;
#X obj 130 88 wave-maker;
#X obj 388 474 simple 1;
#X obj 318 475 simple 0;
#X obj 458 474 simple 2;
#X obj 528 474 simple 3;
#X obj 97 162 r aux, f 6;
#X obj 98 224 f, f 6;
#X obj 97 194 sel 1, f 6;
#X obj 148 224 + 1, f 6;
#X obj 99 253 mod 8, f 6;
#X floatatom 98 282 5 0 0 0 - - -, f 5;
#X obj 96 312 sel 0 1 2 3 4 5 6 7;
#X msg 94 344 set wave1;
#X obj 113 497 s setwave;
#X msg 104 368 set wave2;
#X msg 123 391 set wave3;
#X msg 138 412 set wave4;
#X msg 154 433 set wave5;
#X msg 169 346 set wave6;
#X msg 185 368 set wave7;
#X msg 195 392 set wave8;
#X text 47 536;
#X connect 0 0 7 0;
#X connect 7 0 48 0;
#X connect 7 1 47 0;
#X connect 7 2 49 0;
#X connect 7 3 50 0;
#X connect 11 0 15 0;
#X connect 15 0 0 0;
#X connect 15 0 1 0;
#X connect 15 1 2 0;
#X connect 15 1 0 1;
#X connect 15 2 0 2;
#X connect 15 2 3 0;
#X connect 16 0 15 0;
#X connect 18 0 25 0;
#X connect 19 0 18 0;
#X connect 20 0 31 0;
#X connect 22 0 28 0;
#X connect 23 0 19 0;
#X connect 24 0 44 0;
#X connect 25 0 17 0;
#X connect 27 0 26 0;
#X connect 28 0 27 0;
#X connect 31 0 30 0;
#X connect 31 0 45 0;
#X connect 32 0 34 0;
#X connect 32 0 42 0;
#X connect 33 0 43 0;
#X connect 34 0 21 0;
#X connect 34 0 21 1;
#X connect 35 0 33 0;
#X connect 36 0 32 0;
#X connect 37 0 23 0;
#X connect 38 0 31 0;
#X connect 39 0 36 1;
#X connect 40 0 35 0;
#X connect 41 0 32 0;
#X connect 43 0 34 0;
#X connect 43 0 36 0;
#X connect 44 0 16 0;
#X connect 44 1 15 1;
#X connect 47 0 41 0;
#X connect 47 1 12 0;
#X connect 48 0 41 0;
#X connect 49 0 41 0;
#X connect 49 1 13 0;
#X connect 50 0 41 0;
#X connect 50 1 14 0;
#X connect 51 0 53 0;
#X connect 52 0 54 0;
#X connect 52 0 55 0;
#X connect 53 0 52 0;
#X connect 54 0 52 1;
#X connect 55 0 56 0;
#X connect 56 0 57 0;
#X connect 57 0 58 0;
#X connect 57 1 60 0;
#X connect 57 2 61 0;
#X connect 57 3 62 0;
#X connect 57 4 63 0;
#X connect 57 5 64 0;
#X connect 57 6 65 0;
#X connect 57 7 66 0;
#X connect 58 0 59 0;
#X connect 60 0 59 0;
#X connect 61 0 59 0;
#X connect 62 0 59 0;
#X connect 63 0 59 0;
#X connect 64 0 59 0;
#X connect 65 0 59 0;
#X connect 66 0 59 0;
