#N canvas 4 80 1562 914 12;
#X obj 56 479 hip~ 5;
#N canvas 0 50 450 300 (subpatch) 0;
#X array drumsa 44104 float 0;
#X coords 0 1.02 44103 -1.02 200 130 1;
#X restore 1101 477 graph;
#X obj 57 405 line~;
#X obj 1095 -6 loadbang;
#X text 778 180 (one second plus three extra;
#X text 780 199 for 4-point interpolation);
#X text 596 589 updated for Pd version 0.33;
#X text 798 156 --- 44103 samples ---;
#X obj 1110 265 soundfiler;
#X msg 143 311 0;
#X obj 71 256 t b b;
#X obj 79 224 bng 15 250 50 0 empty empty empty 17 7 0 10 -262144 -1
-1;
#N canvas 0 50 450 300 (subpatch) 0;
#X array druma 44104 float 0;
#X coords 0 1.02 44103 -1.02 200 130 1;
#X restore 877 311 graph;
#N canvas 0 50 450 300 (subpatch) 0;
#X array drumba 44104 float 0;
#X coords 0 1.02 44103 -1.02 200 130 1;
#X restore 874 477 graph;
#X obj 57 440 tabread4~ druma;
#X obj 69 189 t f f;
#X obj 29 351 pack 44100 1000;
#X msg 42 303 44100;
#X obj 217 497 hip~ 5;
#X obj 218 414 line~;
#X msg 306 319 0;
#X obj 230 247 t b b;
#X obj 230 218 bng 15 250 50 0 empty empty empty 17 7 0 10 -262144
-1 -1;
#X obj 220 183 t f f;
#X obj 190 360 pack 44100 1000;
#X msg 193 309 44100;
#X obj 375 488 hip~ 5;
#X obj 376 414 line~;
#X msg 466 315 0;
#X obj 388 247 t b b;
#X obj 388 218 bng 15 250 50 0 empty empty empty 17 7 0 10 -262144
-1 -1;
#X obj 378 183 t f f;
#X obj 348 360 pack 44100 1000;
#X msg 361 312 44100;
#X obj 218 449 tabread4~ drumsa;
#X obj 376 449 tabread4~ drumba;
#X obj 847 55 r knob4;
#N canvas 0 50 450 300 (subpatch) 0;
#X array drumd 44104 float 0;
#X coords 0 1.02 44103 -1.02 200 130 1;
#X restore 1096 314 graph;
#X msg 1061 219 read ./trumpet.wav drumsa;
#X msg 1091 193 read ./trumpet.wav drumba;
#X msg 1143 144 read ./trumpet.wav druma;
#X msg 1123 169 read ./trumpet.wav drumd;
#X obj 557 496 hip~ 5;
#X obj 558 422 line~;
#X msg 653 321 0;
#X obj 570 255 t b b;
#X obj 570 226 bng 15 250 50 0 empty empty empty 17 7 0 10 -262144
-1 -1;
#X obj 560 191 t f f;
#X obj 530 368 pack 44100 1000;
#X msg 543 320 44100;
#X obj 558 457 tabread4~ drumba;
#X obj 558 541 *~ 0.25;
#X obj 376 541 *~ 0.25;
#X obj 217 540 *~ 0.25;
#X obj 57 536 *~ 0.25;
#N canvas 4 94 1136 668 notes 0;
#X obj 73 50 loadbang;
#X obj 1195 166 r knob1;
#X obj 534 264 qlist;
#X floatatom 534 318 0 0 0 0 - - -;
#X msg 534 139 bang;
#X obj 548 292 print done;
#X text 1361 346 read a file;
#X text 1425 373 write one;
#X text 1530 290 add a message to a qlist;
#X msg 596 119 print;
#X msg 464 107 read what.txt;
#X obj 1151 203 * 100;
#X floatatom 667 96 5 0 0 0 - - -, f 5;
#X msg 633 149 tempo \$1;
#X obj 680 46 r knob3;
#X obj 686 67 * 3;
#X connect 0 0 10 0;
#X connect 0 0 4 0;
#X connect 1 0 11 0;
#X connect 2 0 3 0;
#X connect 2 1 5 0;
#X connect 2 1 4 0;
#X connect 4 0 2 0;
#X connect 9 0 2 0;
#X connect 10 0 2 0;
#X connect 12 0 13 0;
#X connect 13 0 2 0;
#X connect 14 0 15 0;
#X connect 15 0 12 0;
#X restore 749 274 pd notes;
#X obj 365 11 mtof;
#X obj 214 10 mtof;
#X obj 47 -1 r track1;
#X obj 47 28 mtof;
#X obj 565 12 mtof;
#X obj 214 -19 r track2;
#X obj 365 -18 r track3;
#X obj 565 -17 r track4;
#X obj 254 313 * 1;
#X obj 93 304 * 1;
#X obj 412 313 * 1;
#X obj 594 321 * 1;
#X obj 43 57 t b f;
#X obj 80 89 / 1;
#X floatatom 74 127 8 0 0 0 - - -, f 8;
#X obj 70 161 * 1;
#X obj 840 89 * 2;
#X obj 202 46 t b f;
#X obj 239 78 / 1;
#X floatatom 233 116 8 0 0 0 - - -, f 8;
#X obj 229 150 * 1;
#X obj 348 49 t b f;
#X obj 385 81 / 1;
#X floatatom 379 119 8 0 0 0 - - -, f 8;
#X obj 375 153 * 1;
#X obj 556 49 t b f;
#X obj 593 81 / 1;
#X floatatom 587 119 8 0 0 0 - - -, f 8;
#X obj 583 153 * 1;
#X floatatom 638 47 8 0 0 0 - - -, f 8;
#X msg 17 87 500000;
#X msg 176 76 500000;
#X msg 322 79 500000;
#X msg 530 79 500000;
#X obj 564 889 dac~;
#X obj 466 618 clip~ -0.9 0.9;
#X obj 662 740 lop~ 1;
#X obj 593 825 *~ 1;
#X obj 672 713 * 1000;
#X obj 422 700 *~ 0.66;
#X obj 455 666 r knob2;
#X obj 675 682 r knob1;
#X obj 520 672 delwrite~ synth2_del 2000;
#X obj 646 773 vd~ synth2_del 2000;
#X connect 0 0 54 0;
#X connect 2 0 14 0;
#X connect 3 0 41 0;
#X connect 3 0 39 0;
#X connect 3 0 38 0;
#X connect 3 0 40 0;
#X connect 9 0 2 0;
#X connect 10 0 17 0;
#X connect 10 1 9 0;
#X connect 11 0 10 0;
#X connect 14 0 0 0;
#X connect 15 0 11 0;
#X connect 15 1 65 0;
#X connect 16 0 2 0;
#X connect 17 0 16 0;
#X connect 18 0 53 0;
#X connect 19 0 34 0;
#X connect 20 0 19 0;
#X connect 21 0 25 0;
#X connect 21 1 20 0;
#X connect 22 0 21 0;
#X connect 23 0 22 0;
#X connect 23 1 64 0;
#X connect 24 0 19 0;
#X connect 25 0 24 0;
#X connect 26 0 52 0;
#X connect 27 0 35 0;
#X connect 28 0 27 0;
#X connect 29 0 33 0;
#X connect 29 1 28 0;
#X connect 30 0 29 0;
#X connect 31 0 30 0;
#X connect 31 1 66 0;
#X connect 32 0 27 0;
#X connect 33 0 32 0;
#X connect 34 0 18 0;
#X connect 35 0 26 0;
#X connect 36 0 72 0;
#X connect 38 0 8 0;
#X connect 39 0 8 0;
#X connect 40 0 8 0;
#X connect 41 0 8 0;
#X connect 42 0 51 0;
#X connect 43 0 50 0;
#X connect 44 0 43 0;
#X connect 45 0 49 0;
#X connect 45 1 44 0;
#X connect 46 0 45 0;
#X connect 47 0 46 0;
#X connect 47 1 67 0;
#X connect 48 0 43 0;
#X connect 49 0 48 0;
#X connect 50 0 42 0;
#X connect 51 0 91 0;
#X connect 52 0 91 0;
#X connect 53 0 91 0;
#X connect 54 0 91 0;
#X connect 56 0 77 0;
#X connect 57 0 73 0;
#X connect 58 0 59 0;
#X connect 59 0 68 0;
#X connect 60 0 81 0;
#X connect 60 0 85 0;
#X connect 61 0 57 0;
#X connect 62 0 56 0;
#X connect 63 0 60 0;
#X connect 64 0 24 1;
#X connect 65 0 16 1;
#X connect 66 0 32 1;
#X connect 67 0 48 1;
#X connect 68 0 86 0;
#X connect 68 1 69 1;
#X connect 69 0 70 0;
#X connect 70 0 71 0;
#X connect 71 0 15 0;
#X connect 72 0 84 1;
#X connect 72 0 80 1;
#X connect 72 0 76 1;
#X connect 72 0 71 1;
#X connect 73 0 87 0;
#X connect 73 1 74 1;
#X connect 74 0 75 0;
#X connect 75 0 76 0;
#X connect 76 0 23 0;
#X connect 77 0 88 0;
#X connect 77 1 78 1;
#X connect 78 0 79 0;
#X connect 79 0 80 0;
#X connect 80 0 31 0;
#X connect 81 0 89 0;
#X connect 81 1 82 1;
#X connect 82 0 83 0;
#X connect 83 0 84 0;
#X connect 84 0 47 0;
#X connect 86 0 69 0;
#X connect 87 0 74 0;
#X connect 88 0 78 0;
#X connect 89 0 82 0;
#X connect 91 0 93 0;
#X connect 91 0 98 0;
#X connect 92 0 99 0;
#X connect 93 0 90 0;
#X connect 93 0 90 1;
#X connect 94 0 92 0;
#X connect 95 0 91 0;
#X connect 96 0 95 1;
#X connect 97 0 94 0;
#X connect 99 0 93 0;
#X connect 99 0 95 0;
