#N canvas 1 84 1364 682 12;
#X obj 56 479 hip~ 5;
#N canvas 0 0 450 300 (subpatch) 0;
#X array drumsa 44104 float 0;
#X coords 0 1.02 44103 -1.02 200 130 1;
#X restore 730 38 graph;
#X obj 57 405 line~;
#X obj 592 242 loadbang;
#X text 778 180 (one second plus three extra;
#X text 780 199 for 4-point interpolation);
#X text 596 589 updated for Pd version 0.33;
#X text 771 158 --- 44103 samples ---;
#X obj 619 348 soundfiler;
#X msg 153 316 0;
#X obj 72 222 t b b;
#X obj 72 193 bng 15 250 50 0 empty empty empty 17 7 0 10 -262144 -1
-1;
#N canvas 0 0 450 300 (subpatch) 0;
#X array druma 44104 float 0;
#X coords 0 1.02 44103 -1.02 200 130 1;
#X restore 516 39 graph;
#N canvas 0 0 450 300 (subpatch) 0;
#X array drumba 44104 float 0;
#X coords 0 1.02 44103 -1.02 200 130 1;
#X restore 546 425 graph;
#X obj 57 440 tabread4~ druma;
#X obj 373 559 *~ 0.3;
#X obj 211 567 *~ 0.3;
#X obj 58 561 *~ 0.3;
#X obj 202 654 dac~;
#X obj 59 159 spigot;
#X obj 149 87 > 0.1;
#X obj 43 90 f;
#X obj 38 129 t f f;
#X obj 138 48 r knob1;
#X obj 29 351 pack 44100 1000;
#X msg 45 287 44100;
#X obj 96 288 * 1000;
#X obj 217 497 hip~ 5;
#X obj 218 414 line~;
#X msg 314 325 0;
#X obj 233 231 t b b;
#X obj 233 202 bng 15 250 50 0 empty empty empty 17 7 0 10 -262144
-1 -1;
#X obj 220 168 spigot;
#X obj 310 96 > 0.1;
#X obj 204 99 f;
#X obj 199 138 t f f;
#X obj 190 360 pack 44100 1000;
#X msg 206 296 44100;
#X obj 257 297 * 1000;
#X obj 375 488 hip~ 5;
#X obj 376 414 line~;
#X msg 472 325 0;
#X obj 391 231 t b b;
#X obj 391 202 bng 15 250 50 0 empty empty empty 17 7 0 10 -262144
-1 -1;
#X obj 378 168 spigot;
#X obj 468 96 > 0.1;
#X obj 362 99 f;
#X obj 357 138 t f f;
#X obj 348 360 pack 44100 1000;
#X msg 364 296 44100;
#X obj 415 297 * 1000;
#X obj 218 449 tabread4~ drumsa;
#X obj 376 449 tabread4~ drumba;
#X obj 299 57 r knob2;
#X obj 457 57 r knob3;
#X floatatom 276 169 5 0 0 0 - - -;
#X obj 986 47 r knob4;
#X msg 610 270 read ./hiflngtm.wav druma;
#X msg 553 291 read ./tom6.wav drumba;
#X msg 532 322 read ./Tom_mtb67-01.wav drumsa;
#X obj 907 293 bng 15 250 50 0 empty empty empty 17 7 0 10 -262144
-1 -1;
#X obj 893 251 r aux;
#X obj 901 365 f 1;
#X obj 947 366 + 1;
#X obj 901 396 mod 3;
#X obj 901 425 sel 0 1 2;
#X obj 902 465 bng 15 250 50 0 empty empty empty 17 7 0 10 -262144
-1 -1;
#X obj 928 464 bng 15 250 50 0 empty empty empty 17 7 0 10 -262144
-1 -1;
#X obj 954 465 bng 15 250 50 0 empty empty empty 17 7 0 10 -262144
-1 -1;
#X obj 956 265 metro 500;
#X msg 955 228 1;
#X obj 983 77 * 500;
#X connect 0 0 17 0;
#X connect 2 0 14 0;
#X connect 3 0 57 0;
#X connect 3 0 58 0;
#X connect 3 0 59 0;
#X connect 3 0 70 0;
#X connect 9 0 2 0;
#X connect 10 0 25 0;
#X connect 10 1 9 0;
#X connect 11 0 10 0;
#X connect 14 0 0 0;
#X connect 15 0 18 0;
#X connect 15 0 18 1;
#X connect 16 0 18 1;
#X connect 16 0 18 0;
#X connect 17 0 18 1;
#X connect 17 0 18 0;
#X connect 19 0 11 0;
#X connect 20 0 19 1;
#X connect 21 0 22 0;
#X connect 22 0 19 0;
#X connect 22 1 20 0;
#X connect 22 1 26 0;
#X connect 23 0 21 1;
#X connect 24 0 2 0;
#X connect 25 0 24 0;
#X connect 26 0 24 1;
#X connect 27 0 16 0;
#X connect 28 0 51 0;
#X connect 29 0 28 0;
#X connect 30 0 37 0;
#X connect 30 1 29 0;
#X connect 31 0 30 0;
#X connect 32 0 31 0;
#X connect 33 0 32 1;
#X connect 34 0 35 0;
#X connect 35 0 32 0;
#X connect 35 1 33 0;
#X connect 35 1 38 0;
#X connect 36 0 28 0;
#X connect 37 0 36 0;
#X connect 38 0 36 1;
#X connect 39 0 15 0;
#X connect 40 0 52 0;
#X connect 41 0 40 0;
#X connect 42 0 49 0;
#X connect 42 1 41 0;
#X connect 43 0 42 0;
#X connect 44 0 43 0;
#X connect 45 0 44 1;
#X connect 46 0 47 0;
#X connect 47 0 44 0;
#X connect 47 1 45 0;
#X connect 47 1 50 0;
#X connect 48 0 40 0;
#X connect 49 0 48 0;
#X connect 50 0 48 1;
#X connect 51 0 27 0;
#X connect 52 0 39 0;
#X connect 53 0 34 1;
#X connect 53 0 55 0;
#X connect 54 0 46 1;
#X connect 56 0 71 0;
#X connect 57 0 8 0;
#X connect 58 0 8 0;
#X connect 59 0 8 0;
#X connect 60 0 62 0;
#X connect 61 0 60 0;
#X connect 62 0 63 0;
#X connect 62 0 64 0;
#X connect 63 0 62 1;
#X connect 64 0 65 0;
#X connect 65 0 66 0;
#X connect 65 1 67 0;
#X connect 65 2 68 0;
#X connect 66 0 21 0;
#X connect 67 0 34 0;
#X connect 68 0 46 0;
#X connect 69 0 60 0;
#X connect 70 0 69 0;
#X connect 71 0 69 1;
